<svg id="e3XdyRI9iub1" xmlns="http://www.w3.org/2000/svg" xmlns:xlink="http://www.w3.org/1999/xlink" viewBox="0 0 178.25572 178.25576" shape-rendering="geometricPrecision" text-rendering="geometricPrecision"><defs><radialGradient id="e3XdyRI9iub81-fill" cx="0" cy="0" r="38.558594" spreadMethod="pad" gradientUnits="userSpaceOnUse" gradientTransform="matrix(0.82258 0 0 0.671518 397.386164 523.907515)"/><radialGradient id="e3XdyRI9iub83-fill" cx="0" cy="0" r="28.826176" spreadMethod="pad" gradientUnits="userSpaceOnUse" gradientTransform="matrix(-0.16251 -0.16251 -0.164516 0.164516 91.823429 117.23994)"/><radialGradient id="e3XdyRI9iub84-fill" cx="0" cy="0" r="28.826176" spreadMethod="pad" gradientUnits="userSpaceOnUse" gradientTransform="matrix(0.758373 -0.437847 0.536551 0.929333 447.967197 444.888098)"/><linearGradient id="e3XdyRI9iub87-fill" x1="125.6655" y1="107.62135" x2="127.24095" y2="112.25503" spreadMethod="pad" gradientUnits="userSpaceOnUse" gradientTransform="translate(0 0)"><stop id="e3XdyRI9iub87-fill-0" offset="0%" stop-color="#c58b7b"/><stop id="e3XdyRI9iub87-fill-1" offset="100%" stop-color="#bf7e6d"/></linearGradient><linearGradient id="e3XdyRI9iub88-fill" x1="125.71184" y1="107.436" x2="128.21402" y2="107.85304" spreadMethod="pad" gradientUnits="userSpaceOnUse" gradientTransform="translate(0 0)"><stop id="e3XdyRI9iub88-fill-0" offset="0%" stop-color="#c5907b"/><stop id="e3XdyRI9iub88-fill-1" offset="100%" stop-color="#b36d51"/></linearGradient><linearGradient id="e3XdyRI9iub89-fill" x1="124.7851" y1="117.58377" x2="128.07501" y2="111.65266" spreadMethod="pad" gradientUnits="userSpaceOnUse" gradientTransform="translate(0 0)"><stop id="e3XdyRI9iub89-fill-0" offset="0%" stop-color="#c58f7b"/><stop id="e3XdyRI9iub89-fill-1" offset="100%" stop-color="#cc9b88"/></linearGradient><linearGradient id="e3XdyRI9iub90-fill" x1="125.2948" y1="106.9263" x2="128.44571" y2="105.86055" spreadMethod="pad" gradientUnits="userSpaceOnUse" gradientTransform="translate(0 0)"><stop id="e3XdyRI9iub90-fill-0" offset="0%" stop-color="#bf846e"/><stop id="e3XdyRI9iub90-fill-1" offset="100%" stop-color="#ddbeb3"/></linearGradient><linearGradient id="e3XdyRI9iub92-fill" x1="125.6655" y1="107.62135" x2="127.24095" y2="112.25503" spreadMethod="pad" gradientUnits="userSpaceOnUse" gradientTransform="translate(0 0)"><stop id="e3XdyRI9iub92-fill-0" offset="0%" stop-color="#b9705f"/><stop id="e3XdyRI9iub92-fill-1" offset="100%" stop-color="#b36351"/></linearGradient><linearGradient id="e3XdyRI9iub93-fill" x1="125.71184" y1="107.436" x2="128.21402" y2="107.85304" spreadMethod="pad" gradientUnits="userSpaceOnUse" gradientTransform="translate(0 0)"><stop id="e3XdyRI9iub93-fill-0" offset="0%" stop-color="#b9795f"/><stop id="e3XdyRI9iub93-fill-1" offset="100%" stop-color="#995c43"/></linearGradient><linearGradient id="e3XdyRI9iub94-fill" x1="124.7851" y1="117.58377" x2="128.07501" y2="111.65266" spreadMethod="pad" gradientUnits="userSpaceOnUse" gradientTransform="translate(0 0)"><stop id="e3XdyRI9iub94-fill-0" offset="0%" stop-color="#b9775f"/><stop id="e3XdyRI9iub94-fill-1" offset="100%" stop-color="#c0836c"/></linearGradient><linearGradient id="e3XdyRI9iub95-fill" x1="125.2948" y1="106.9263" x2="128.44571" y2="105.86055" spreadMethod="pad" gradientUnits="userSpaceOnUse" gradientTransform="translate(0 0)"><stop id="e3XdyRI9iub95-fill-0" offset="0%" stop-color="#b26c52"/><stop id="e3XdyRI9iub95-fill-1" offset="100%" stop-color="#d1a797"/></linearGradient><linearGradient id="e3XdyRI9iub97-fill" x1="96.958069" y1="124.27777" x2="110.77946" y2="125.96195" spreadMethod="pad" gradientUnits="userSpaceOnUse" gradientTransform="translate(0 0)"><stop id="e3XdyRI9iub97-fill-0" offset="0%" stop-color="#646464"/><stop id="e3XdyRI9iub97-fill-1" offset="15.060535%" stop-color="#f0f0f0"/><stop id="e3XdyRI9iub97-fill-2" offset="84.472954%" stop-color="#fff"/><stop id="e3XdyRI9iub97-fill-3" offset="100%" stop-color="#646464"/></linearGradient><radialGradient id="e3XdyRI9iub98-fill" cx="0" cy="0" r="33.66206" spreadMethod="pad" gradientUnits="userSpaceOnUse" gradientTransform="matrix(-0.971093 -0.172481 0.067546 -0.380291 395.043299 476.298284)"/><radialGradient id="e3XdyRI9iub99-fill" cx="0" cy="0" r="6.182908" spreadMethod="pad" gradientUnits="userSpaceOnUse" gradientTransform="matrix(1.15521 0.000001 -0.000001 0.681959 96.466183 106.330347)"/><linearGradient id="e3XdyRI9iub103-fill" x1="105.83334" y1="116.7526" x2="105.38235" y2="119.08274" spreadMethod="pad" gradientUnits="userSpaceOnUse" gradientTransform="translate(0 0)"><stop id="e3XdyRI9iub103-fill-0" offset="0%" stop-color="#cf9a85"/><stop id="e3XdyRI9iub103-fill-1" offset="100%" stop-color="#c68970"/></linearGradient><linearGradient id="e3XdyRI9iub104-fill" x1="107.862668" y1="113.144517" x2="109.741816" y2="111.791524" spreadMethod="pad" gradientUnits="userSpaceOnUse" gradientTransform="translate(0 0)"><stop id="e3XdyRI9iub104-fill-0" offset="0%" stop-color="#d7ad9b"/><stop id="e3XdyRI9iub104-fill-1" offset="100%" stop-color="#e6c8be"/></linearGradient><linearGradient id="e3XdyRI9iub105-fill" x1="102.75154" y1="115.70028" x2="101.77438" y2="112.01717" spreadMethod="pad" gradientUnits="userSpaceOnUse" gradientTransform="translate(0 0)"><stop id="e3XdyRI9iub105-fill-0" offset="0%" stop-color="#d7a89b"/><stop id="e3XdyRI9iub105-fill-1" offset="100%" stop-color="#d79787"/></linearGradient><linearGradient id="e3XdyRI9iub106-fill" x1="104.780885" y1="114.422321" x2="106.584849" y2="107.431922" spreadMethod="pad" gradientUnits="userSpaceOnUse" gradientTransform="translate(0 0)"><stop id="e3XdyRI9iub106-fill-0" offset="0%" stop-color="#d4a694"/><stop id="e3XdyRI9iub106-fill-1" offset="100%" stop-color="#e0beb0"/></linearGradient><radialGradient id="e3XdyRI9iub107-fill" cx="0" cy="0" r="6.182908" spreadMethod="pad" gradientUnits="userSpaceOnUse" gradientTransform="matrix(-1.13111 0.038642 0.026339 0.770992 114.458629 105.040547)"/><linearGradient id="e3XdyRI9iub110-fill" x1="93.084862" y1="106.03767" x2="100.49583" y2="106.38866" spreadMethod="pad" gradientUnits="userSpaceOnUse" gradientTransform="translate(0 0)"><stop id="e3XdyRI9iub110-fill-0" offset="0%" stop-color="#bebebe"/><stop id="e3XdyRI9iub110-fill-1" offset="11.59429%" stop-color="#fff"/><stop id="e3XdyRI9iub110-fill-2" offset="89.344507%" stop-color="#fff"/><stop id="e3XdyRI9iub110-fill-3" offset="100%" stop-color="#bebebe"/></linearGradient><linearGradient id="e3XdyRI9iub116-fill" x1="95.942802" y1="104.62336" x2="98.446571" y2="107.04333" spreadMethod="pad" gradientUnits="userSpaceOnUse" gradientTransform="translate(0 0)"><stop id="e3XdyRI9iub116-fill-0" offset="0%" stop-color="#fff"/><stop id="e3XdyRI9iub116-fill-1" offset="100%" stop-color="rgba(255,255,255,0)"/></linearGradient><linearGradient id="e3XdyRI9iub117-fill" x1="368.14026" y1="400.56848" x2="360.28964" y2="405.98004" spreadMethod="pad" gradientUnits="userSpaceOnUse" gradientTransform="translate(0 0)"><stop id="e3XdyRI9iub117-fill-0" offset="0%" stop-color="#fff"/><stop id="e3XdyRI9iub117-fill-1" offset="100%" stop-color="rgba(255,255,255,0)"/></linearGradient><linearGradient id="e3XdyRI9iub118-fill" x1="366.69208" y1="399.5014" x2="374.08536" y2="394.24225" spreadMethod="pad" gradientUnits="userSpaceOnUse" gradientTransform="translate(0 0)"><stop id="e3XdyRI9iub118-fill-0" offset="0%" stop-color="#fff"/><stop id="e3XdyRI9iub118-fill-1" offset="100%" stop-color="rgba(255,255,255,0)"/></linearGradient><linearGradient id="e3XdyRI9iub120-fill" x1="118.333138" y1="105.441136" x2="110.92217" y2="105.792126" spreadMethod="pad" gradientUnits="userSpaceOnUse" gradientTransform="translate(0 0)"><stop id="e3XdyRI9iub120-fill-0" offset="0%" stop-color="#bebebe"/><stop id="e3XdyRI9iub120-fill-1" offset="12.362213%" stop-color="#fff"/><stop id="e3XdyRI9iub120-fill-2" offset="89.344507%" stop-color="#fff"/><stop id="e3XdyRI9iub120-fill-3" offset="100%" stop-color="#bebebe"/></linearGradient><linearGradient id="e3XdyRI9iub126-fill" x1="96.251732" y1="105.02412" x2="98.134659" y2="106.66794" spreadMethod="pad" gradientUnits="userSpaceOnUse" gradientTransform="translate(0 0)"><stop id="e3XdyRI9iub126-fill-0" offset="0%" stop-color="#fff"/><stop id="e3XdyRI9iub126-fill-1" offset="100%" stop-color="rgba(255,255,255,0)"/></linearGradient><linearGradient id="e3XdyRI9iub127-fill" x1="97.357574" y1="105.95064" x2="95.997681" y2="107.05648" spreadMethod="pad" gradientUnits="userSpaceOnUse" gradientTransform="translate(0 0)"><stop id="e3XdyRI9iub127-fill-0" offset="0%" stop-color="#fff"/><stop id="e3XdyRI9iub127-fill-1" offset="100%" stop-color="rgba(255,255,255,0)"/></linearGradient><linearGradient id="e3XdyRI9iub128-fill" x1="97.058701" y1="105.69659" x2="98.373756" y2="104.65052" spreadMethod="pad" gradientUnits="userSpaceOnUse" gradientTransform="translate(0 0)"><stop id="e3XdyRI9iub128-fill-0" offset="0%" stop-color="#fff"/><stop id="e3XdyRI9iub128-fill-1" offset="100%" stop-color="rgba(255,255,255,0)"/></linearGradient><linearGradient id="e3XdyRI9iub157-fill" x1="407.302" y1="393.55927" x2="453.83664" y2="390.46524" spreadMethod="pad" gradientUnits="userSpaceOnUse" gradientTransform="translate(0 0)"><stop id="e3XdyRI9iub157-fill-0" offset="0%" stop-color="#fff"/><stop id="e3XdyRI9iub157-fill-1" offset="100%" stop-color="rgba(255,255,255,0)"/></linearGradient><linearGradient id="e3XdyRI9iub158-fill" x1="336.75742" y1="397.14841" x2="381.80692" y2="395.41571" spreadMethod="pad" gradientUnits="userSpaceOnUse" gradientTransform="translate(0 0)"><stop id="e3XdyRI9iub158-fill-0" offset="0%" stop-color="#fff"/><stop id="e3XdyRI9iub158-fill-1" offset="100%" stop-color="rgba(255,255,255,0)"/></linearGradient></defs><g transform="translate(-15.7617-19.0125)"><path d="" fill="none" stroke="#000" stroke-linecap="round" stroke-linejoin="round"/><path d="" fill="none" stroke="#000" stroke-linecap="round" stroke-linejoin="round"/><g id="e3XdyRI9iub5"><g id="e3XdyRI9iub6" transform="matrix(1.93467 0 0 1.93467-98.0369-101.075)" opacity="0"><path d="M148.84834,108.14041c-.000001,24.277771-19.681019,43.958794-43.95879,43.9588s-43.9588-19.681025-43.958801-43.9588s19.681026-43.958801,43.958801-43.958801s43.95879,19.68103,43.95879,43.958801Z" fill="none" stroke="#80b3ff" stroke-width="3" stroke-linecap="round" stroke-linejoin="round"/><g transform="translate(2.59641 9.76424)"><path d="M509.49305,292.0771c15.406557,23.740842,23.60553,51.436571,23.60553,79.73833v0c-.000001,28.245708-8.166556,55.889023-23.51595,79.60012" transform="matrix(.264583 0 0 0.264583 0 0)" fill="none" stroke="#80b3ff" stroke-width="11.3386" stroke-linecap="round" stroke-linejoin="round"/><path d="M306.88144,248.94207c23.740837-15.406541,51.436554-23.605503,79.7383-23.6055c28.245706.000006,55.889017,8.166565,79.60011,23.51596" transform="matrix(.264583 0 0 0.264583 0 0)" fill="none" stroke="#80b3ff" stroke-width="11.3386" stroke-linecap="round" stroke-linejoin="round"/><path d="M263.74787,451.55603c-15.4075-23.741329-23.607007-51.437919-23.60701-79.7406.000002-28.246532,8.167036-55.890616,23.51727-79.60215" transform="matrix(.264583 0 0 0.264583 0 0)" fill="none" stroke="#80b3ff" stroke-width="11.3386" stroke-linecap="round" stroke-linejoin="round"/><path d="M466.358,494.68879c-23.740825,15.406534-51.436528,23.605495-79.73826,23.6055-28.245707.000002-55.889022-8.16655-79.60012-23.51594" transform="matrix(.264583 0 0 0.264583 0 0)" fill="none" stroke="#80b3ff" stroke-width="11.3386" stroke-linecap="round" stroke-linejoin="round"/></g><path d="M140.9432,108.14041c0,19.911883-16.141767,36.053654-36.05365,36.05366-9.562025,0-18.732415-3.798499-25.493788-10.559872s-10.559873-15.931763-10.559873-25.493788s3.798499-18.732416,10.559872-25.493789s15.931763-10.559873,25.493789-10.559873c19.911883.000006,36.053651,16.141779,36.05365,36.053662Z" fill="none" stroke="#80b3ff" stroke-width="3" stroke-linecap="round" stroke-linejoin="round"/><g transform="matrix(.608503-.608503 0.608503 0.608503-17.2182 110.524)"><path d="M509.49305,292.0771c15.406557,23.740842,23.60553,51.436571,23.60553,79.73833v0c-.000001,28.245708-8.166556,55.889023-23.51595,79.60012" transform="matrix(.264583 0 0 0.264583 0 0)" fill="none" stroke="#80b3ff" stroke-width="13.1759" stroke-linecap="round" stroke-linejoin="round"/><path d="M306.88144,248.94207c23.740837-15.406541,51.436554-23.605503,79.7383-23.6055c28.245706.000006,55.889017,8.166565,79.60011,23.51596" transform="matrix(.264583 0 0 0.264583 0 0)" fill="none" stroke="#80b3ff" stroke-width="13.1759" stroke-linecap="round" stroke-linejoin="round"/><path d="M263.74787,451.55603c-15.4075-23.741329-23.607007-51.437919-23.60701-79.7406.000002-28.246532,8.167036-55.890616,23.51727-79.60215" transform="matrix(.264583 0 0 0.264583 0 0)" fill="none" stroke="#80b3ff" stroke-width="13.1759" stroke-linecap="round" stroke-linejoin="round"/><path d="M466.358,494.68879c-23.740825,15.406534-51.436528,23.605495-79.73826,23.6055-28.245707.000002-55.889022-8.16655-79.60012-23.51594" transform="matrix(.264583 0 0 0.264583 0 0)" fill="none" stroke="#80b3ff" stroke-width="13.1759" stroke-linecap="round" stroke-linejoin="round"/></g><g transform="matrix(.793734 0 0 0.793734 23.696 30.0559)"><path d="M509.49305,292.0771c15.406557,23.740842,23.60553,51.436571,23.60553,79.73833v0c-.000001,28.245708-8.166556,55.889023-23.51595,79.60012" transform="matrix(.264583 0 0 0.264583 0 0)" fill="none" stroke="#80b3ff" stroke-width="14.2851" stroke-linecap="round" stroke-linejoin="round"/><path d="M306.88144,248.94207c23.740837-15.406541,51.436554-23.605503,79.7383-23.6055c28.245706.000006,55.889017,8.166565,79.60011,23.51596" transform="matrix(.264583 0 0 0.264583 0 0)" fill="none" stroke="#80b3ff" stroke-width="14.2851" stroke-linecap="round" stroke-linejoin="round"/><path d="M263.74787,451.55603c-15.4075-23.741329-23.607007-51.437919-23.60701-79.7406.000002-28.246532,8.167036-55.890616,23.51727-79.60215" transform="matrix(.264583 0 0 0.264583 0 0)" fill="none" stroke="#80b3ff" stroke-width="14.2851" stroke-linecap="round" stroke-linejoin="round"/><path d="M466.358,494.68879c-23.740825,15.406534-51.436528,23.605495-79.73826,23.6055-28.245707.000002-55.889022-8.16655-79.60012-23.51594" transform="matrix(.264583 0 0 0.264583 0 0)" fill="none" stroke="#80b3ff" stroke-width="14.2851" stroke-linecap="round" stroke-linejoin="round"/></g><g transform="matrix(.755475-.755475 0.755475 0.755475-46.7111 111.1)"><path d="M509.49305,292.0771c15.406557,23.740842,23.60553,51.436571,23.60553,79.73833v0c-.000001,28.245708-8.166556,55.889023-23.51595,79.60012" transform="matrix(.264583 0 0 0.264583 0 0)" fill="none" stroke="#80b3ff" stroke-width="10.6126" stroke-linecap="round" stroke-linejoin="round"/><path d="M306.88144,248.94207c23.740837-15.406541,51.436554-23.605503,79.7383-23.6055c28.245706.000006,55.889017,8.166565,79.60011,23.51596" transform="matrix(.264583 0 0 0.264583 0 0)" fill="none" stroke="#80b3ff" stroke-width="10.6126" stroke-linecap="round" stroke-linejoin="round"/><path d="M263.74787,451.55603c-15.4075-23.741329-23.607007-51.437919-23.60701-79.7406.000002-28.246532,8.167036-55.890616,23.51727-79.60215" transform="matrix(.264583 0 0 0.264583 0 0)" fill="none" stroke="#80b3ff" stroke-width="10.6126" stroke-linecap="round" stroke-linejoin="round"/><path d="M466.358,494.68879c-23.740825,15.406534-51.436528,23.605495-79.73826,23.6055-28.245707.000002-55.889022-8.16655-79.60012-23.51594" transform="matrix(.264583 0 0 0.264583 0 0)" fill="none" stroke="#80b3ff" stroke-width="10.6126" stroke-linecap="round" stroke-linejoin="round"/></g></g><g id="e3XdyRI9iub29" transform="matrix(1.93467 0 0 1.93467-98.0369-101.075)" opacity="0.25"><path d="M148.84834,108.14041c-.000001,24.277771-19.681019,43.958794-43.95879,43.9588s-43.9588-19.681025-43.958801-43.9588s19.681026-43.958801,43.958801-43.958801s43.95879,19.68103,43.95879,43.958801Z" fill="none" stroke="#59f" stroke-width="2" stroke-linecap="round" stroke-linejoin="round"/><g transform="translate(2.59641 9.76424)"><path d="M509.49305,292.0771c15.406557,23.740842,23.60553,51.436571,23.60553,79.73833v0c-.000001,28.245708-8.166556,55.889023-23.51595,79.60012" transform="matrix(.264583 0 0 0.264583 0 0)" fill="none" stroke="#59f" stroke-width="7.55906" stroke-linecap="round" stroke-linejoin="round"/><path d="M306.88144,248.94207c23.740837-15.406541,51.436554-23.605503,79.7383-23.6055c28.245706.000006,55.889017,8.166565,79.60011,23.51596" transform="matrix(.264583 0 0 0.264583 0 0)" fill="none" stroke="#59f" stroke-width="7.55906" stroke-linecap="round" stroke-linejoin="round"/><path d="M263.74787,451.55603c-15.4075-23.741329-23.607007-51.437919-23.60701-79.7406.000002-28.246532,8.167036-55.890616,23.51727-79.60215" transform="matrix(.264583 0 0 0.264583 0 0)" fill="none" stroke="#59f" stroke-width="7.55906" stroke-linecap="round" stroke-linejoin="round"/><path d="M466.358,494.68879c-23.740825,15.406534-51.436528,23.605495-79.73826,23.6055-28.245707.000002-55.889022-8.16655-79.60012-23.51594" transform="matrix(.264583 0 0 0.264583 0 0)" fill="none" stroke="#59f" stroke-width="7.55906" stroke-linecap="round" stroke-linejoin="round"/></g><path d="M140.9432,108.14041c0,19.911883-16.141767,36.053654-36.05365,36.05366-9.562025,0-18.732415-3.798499-25.493788-10.559872s-10.559873-15.931763-10.559873-25.493788s3.798499-18.732416,10.559872-25.493789s15.931763-10.559873,25.493789-10.559873c19.911883.000006,36.053651,16.141779,36.05365,36.053662Z" fill="none" stroke="#59f" stroke-width="2" stroke-linecap="round" stroke-linejoin="round"/><g transform="matrix(.608503-.608503 0.608503 0.608503-17.2182 110.524)"><path d="M509.49305,292.0771c15.406557,23.740842,23.60553,51.436571,23.60553,79.73833v0c-.000001,28.245708-8.166556,55.889023-23.51595,79.60012" transform="matrix(.264583 0 0 0.264583 0 0)" fill="none" stroke="#59f" stroke-width="8.78396" stroke-linecap="round" stroke-linejoin="round"/><path d="M306.88144,248.94207c23.740837-15.406541,51.436554-23.605503,79.7383-23.6055c28.245706.000006,55.889017,8.166565,79.60011,23.51596" transform="matrix(.264583 0 0 0.264583 0 0)" fill="none" stroke="#59f" stroke-width="8.78396" stroke-linecap="round" stroke-linejoin="round"/><path d="M263.74787,451.55603c-15.4075-23.741329-23.607007-51.437919-23.60701-79.7406.000002-28.246532,8.167036-55.890616,23.51727-79.60215" transform="matrix(.264583 0 0 0.264583 0 0)" fill="none" stroke="#59f" stroke-width="8.78396" stroke-linecap="round" stroke-linejoin="round"/><path d="M466.358,494.68879c-23.740825,15.406534-51.436528,23.605495-79.73826,23.6055-28.245707.000002-55.889022-8.16655-79.60012-23.51594" transform="matrix(.264583 0 0 0.264583 0 0)" fill="none" stroke="#59f" stroke-width="8.78396" stroke-linecap="round" stroke-linejoin="round"/></g><g transform="matrix(.793734 0 0 0.793734 23.696 30.0559)"><path d="M509.49305,292.0771c15.406557,23.740842,23.60553,51.436571,23.60553,79.73833v0c-.000001,28.245708-8.166556,55.889023-23.51595,79.60012" transform="matrix(.264583 0 0 0.264583 0 0)" fill="none" stroke="#59f" stroke-width="9.52341" stroke-linecap="round" stroke-linejoin="round"/><path d="M306.88144,248.94207c23.740837-15.406541,51.436554-23.605503,79.7383-23.6055c28.245706.000006,55.889017,8.166565,79.60011,23.51596" transform="matrix(.264583 0 0 0.264583 0 0)" fill="none" stroke="#59f" stroke-width="9.52341" stroke-linecap="round" stroke-linejoin="round"/><path d="M263.74787,451.55603c-15.4075-23.741329-23.607007-51.437919-23.60701-79.7406.000002-28.246532,8.167036-55.890616,23.51727-79.60215" transform="matrix(.264583 0 0 0.264583 0 0)" fill="none" stroke="#59f" stroke-width="9.52341" stroke-linecap="round" stroke-linejoin="round"/><path d="M466.358,494.68879c-23.740825,15.406534-51.436528,23.605495-79.73826,23.6055-28.245707.000002-55.889022-8.16655-79.60012-23.51594" transform="matrix(.264583 0 0 0.264583 0 0)" fill="none" stroke="#59f" stroke-width="9.52341" stroke-linecap="round" stroke-linejoin="round"/></g><g transform="matrix(.755475-.755475 0.755475 0.755475-46.7111 111.1)"><path d="M509.49305,292.0771c15.406557,23.740842,23.60553,51.436571,23.60553,79.73833v0c-.000001,28.245708-8.166556,55.889023-23.51595,79.60012" transform="matrix(.264583 0 0 0.264583 0 0)" fill="none" stroke="#59f" stroke-width="7.0751" stroke-linecap="round" stroke-linejoin="round"/><path d="M306.88144,248.94207c23.740837-15.406541,51.436554-23.605503,79.7383-23.6055c28.245706.000006,55.889017,8.166565,79.60011,23.51596" transform="matrix(.264583 0 0 0.264583 0 0)" fill="none" stroke="#59f" stroke-width="7.0751" stroke-linecap="round" stroke-linejoin="round"/><path d="M263.74787,451.55603c-15.4075-23.741329-23.607007-51.437919-23.60701-79.7406.000002-28.246532,8.167036-55.890616,23.51727-79.60215" transform="matrix(.264583 0 0 0.264583 0 0)" fill="none" stroke="#59f" stroke-width="7.0751" stroke-linecap="round" stroke-linejoin="round"/><path d="M466.358,494.68879c-23.740825,15.406534-51.436528,23.605495-79.73826,23.6055-28.245707.000002-55.889022-8.16655-79.60012-23.51594" transform="matrix(.264583 0 0 0.264583 0 0)" fill="none" stroke="#59f" stroke-width="7.0751" stroke-linecap="round" stroke-linejoin="round"/></g></g><g transform="matrix(1.93467 0 0 1.93467-98.0369-101.075)"><path d="M148.84834,108.14041c-.000001,24.277771-19.681019,43.958794-43.95879,43.9588s-43.9588-19.681025-43.958801-43.9588s19.681026-43.958801,43.958801-43.958801s43.95879,19.68103,43.95879,43.958801Z" fill="none" stroke="#2a7fff" stroke-width="0.5" stroke-linecap="round" stroke-linejoin="round"/><g transform="translate(2.59641 9.76424)"><path d="M509.49305,292.0771c15.406557,23.740842,23.60553,51.436571,23.60553,79.73833v0c-.000001,28.245708-8.166556,55.889023-23.51595,79.60012" transform="matrix(.264583 0 0 0.264583 0 0)" fill="none" stroke="#2a7fff" stroke-width="1.88976" stroke-linecap="round" stroke-linejoin="round"/><path d="M306.88144,248.94207c23.740837-15.406541,51.436554-23.605503,79.7383-23.6055c28.245706.000006,55.889017,8.166565,79.60011,23.51596" transform="matrix(.264583 0 0 0.264583 0 0)" fill="none" stroke="#2a7fff" stroke-width="1.88976" stroke-linecap="round" stroke-linejoin="round"/><path d="M263.74787,451.55603c-15.4075-23.741329-23.607007-51.437919-23.60701-79.7406.000002-28.246532,8.167036-55.890616,23.51727-79.60215" transform="matrix(.264583 0 0 0.264583 0 0)" fill="none" stroke="#2a7fff" stroke-width="1.88976" stroke-linecap="round" stroke-linejoin="round"/><path d="M466.358,494.68879c-23.740825,15.406534-51.436528,23.605495-79.73826,23.6055-28.245707.000002-55.889022-8.16655-79.60012-23.51594" transform="matrix(.264583 0 0 0.264583 0 0)" fill="none" stroke="#2a7fff" stroke-width="1.88976" stroke-linecap="round" stroke-linejoin="round"/></g><path d="M140.9432,108.14041c0,19.911883-16.141767,36.053654-36.05365,36.05366-9.562025,0-18.732415-3.798499-25.493788-10.559872s-10.559873-15.931763-10.559873-25.493788s3.798499-18.732416,10.559872-25.493789s15.931763-10.559873,25.493789-10.559873c19.911883.000006,36.053651,16.141779,36.05365,36.053662Z" fill="none" stroke="#2a7fff" stroke-width="0.5" stroke-linecap="round" stroke-linejoin="round"/><g transform="matrix(.608503-.608503 0.608503 0.608503-17.2182 110.524)"><path d="M509.49305,292.0771c15.406557,23.740842,23.60553,51.436571,23.60553,79.73833v0c-.000001,28.245708-8.166556,55.889023-23.51595,79.60012" transform="matrix(.264583 0 0 0.264583 0 0)" fill="none" stroke="#2a7fff" stroke-width="2.19599" stroke-linecap="round" stroke-linejoin="round"/><path d="M306.88144,248.94207c23.740837-15.406541,51.436554-23.605503,79.7383-23.6055c28.245706.000006,55.889017,8.166565,79.60011,23.51596" transform="matrix(.264583 0 0 0.264583 0 0)" fill="none" stroke="#2a7fff" stroke-width="2.19599" stroke-linecap="round" stroke-linejoin="round"/><path d="M263.74787,451.55603c-15.4075-23.741329-23.607007-51.437919-23.60701-79.7406.000002-28.246532,8.167036-55.890616,23.51727-79.60215" transform="matrix(.264583 0 0 0.264583 0 0)" fill="none" stroke="#2a7fff" stroke-width="2.19599" stroke-linecap="round" stroke-linejoin="round"/><path d="M466.358,494.68879c-23.740825,15.406534-51.436528,23.605495-79.73826,23.6055-28.245707.000002-55.889022-8.16655-79.60012-23.51594" transform="matrix(.264583 0 0 0.264583 0 0)" fill="none" stroke="#2a7fff" stroke-width="2.19599" stroke-linecap="round" stroke-linejoin="round"/></g><g transform="matrix(.793734 0 0 0.793734 23.696 30.0559)"><path d="M509.49305,292.0771c15.406557,23.740842,23.60553,51.436571,23.60553,79.73833v0c-.000001,28.245708-8.166556,55.889023-23.51595,79.60012" transform="matrix(.264583 0 0 0.264583 0 0)" fill="none" stroke="#2a7fff" stroke-width="2.38085" stroke-linecap="round" stroke-linejoin="round"/><path d="M306.88144,248.94207c23.740837-15.406541,51.436554-23.605503,79.7383-23.6055c28.245706.000006,55.889017,8.166565,79.60011,23.51596" transform="matrix(.264583 0 0 0.264583 0 0)" fill="none" stroke="#2a7fff" stroke-width="2.38085" stroke-linecap="round" stroke-linejoin="round"/><path d="M263.74787,451.55603c-15.4075-23.741329-23.607007-51.437919-23.60701-79.7406.000002-28.246532,8.167036-55.890616,23.51727-79.60215" transform="matrix(.264583 0 0 0.264583 0 0)" fill="none" stroke="#2a7fff" stroke-width="2.38085" stroke-linecap="round" stroke-linejoin="round"/><path d="M466.358,494.68879c-23.740825,15.406534-51.436528,23.605495-79.73826,23.6055-28.245707.000002-55.889022-8.16655-79.60012-23.51594" transform="matrix(.264583 0 0 0.264583 0 0)" fill="none" stroke="#2a7fff" stroke-width="2.38085" stroke-linecap="round" stroke-linejoin="round"/></g><g transform="matrix(.755475-.755475 0.755475 0.755475-46.7111 111.1)"><path d="M509.49305,292.0771c15.406557,23.740842,23.60553,51.436571,23.60553,79.73833v0c-.000001,28.245708-8.166556,55.889023-23.51595,79.60012" transform="matrix(.264583 0 0 0.264583 0 0)" fill="none" stroke="#2a7fff" stroke-width="1.76877" stroke-linecap="round" stroke-linejoin="round"/><path d="M306.88144,248.94207c23.740837-15.406541,51.436554-23.605503,79.7383-23.6055c28.245706.000006,55.889017,8.166565,79.60011,23.51596" transform="matrix(.264583 0 0 0.264583 0 0)" fill="none" stroke="#2a7fff" stroke-width="1.76877" stroke-linecap="round" stroke-linejoin="round"/><path d="M263.74787,451.55603c-15.4075-23.741329-23.607007-51.437919-23.60701-79.7406.000002-28.246532,8.167036-55.890616,23.51727-79.60215" transform="matrix(.264583 0 0 0.264583 0 0)" fill="none" stroke="#2a7fff" stroke-width="1.76877" stroke-linecap="round" stroke-linejoin="round"/><path d="M466.358,494.68879c-23.740825,15.406534-51.436528,23.605495-79.73826,23.6055-28.245707.000002-55.889022-8.16655-79.60012-23.51594" transform="matrix(.264583 0 0 0.264583 0 0)" fill="none" stroke="#2a7fff" stroke-width="1.76877" stroke-linecap="round" stroke-linejoin="round"/></g></g></g><path id="e3XdyRI9iub75" d="M396.5918,275.64453c-5.11363,0-13.62305.75391-13.62305.75391-.63477-.0265-1.43486.0987-2.28711.38281-3.4091,1.13636-18.2207,7.73633-18.2207,7.73633-.27965-.0132-.74166.14684-1.38086.50195-2.55682,1.42045-8.80824,5.11363-10.79688,6.25s-12.49964,9.09162-14.48828,11.64844-15.9082,20.73828-15.9082,20.73828c-2.27272,1.98864-2.84109,7.66974-3.69336,10.22656s-3.40945,6.81889-4.26172,8.52344-2.55574,9.375-2.83984,12.5.2832,16.47656.2832,16.47656.3518,12.45464.94336,17.57227c.76621,3.53921,5.26969,13.22213,5.27539,13.23437.00041.002.003.021.004.0234-1.20666-.38657-2.63489-.64389-4.26563-.50391-4.86073.4173-4.53866,7.73515-3.43555,13.45508s2.49219,14.78125,2.49219,14.78125c.90374,6.96121,4.8334,9.86859,6.69141,13.6875c1.55355,3.19318,4.35254,7.39207,6.30469,6.62891.14559,1.40968.15694,2.61339.53711,3.10937l-.0586.11524c0,0,.38446,7.03779.084,12.45703-.34659,6.25156,2.10115-1.72625,1.17773,11.54492-.68251,9.80886.74746,5.8485,3.04102,10.56055.46406,6.84639,2.25213,1.49517,2.82031,5.77734.52845,3.98275,3.73981,4.37053,4.89258,8.0586.9903,3.16828,3.05821,6.33194,4.76757,7.1582c1.0565,2.4561,2.89434,1.09809,3.6504,5.48047.85227,3.79733,3.26053,1.91891,6.69335,8.56445c3.28224,6.35399,4.64351-.61877,7.54688,7.44727c7.57433,4.87347,7.63642.0552,12.95703,5.96679.0985-.15893.16991-.30355.26172-.45898c2.42928,1.41263,4.70356,1.87286,6.08594,4.375c3.30587-1.02055,10.89888,2.81525,14.25586.76172c6.07793-3.71804,5.6041,2.05281,11.02734-.0117c7.18749-2.7385,8.18615,1.95142,13.75195-1.80664c5.18494-3.00533,7.9484-.69277,10.95313-4.89453.001.0311.0117.26953.0117.26953s9.32246-2.84036,11.07812-7.67188c5.68184-1.13635,6.81801-2.83985,8.80664-5.96484s4.73883-2.73992,6.44336-9.27344c.83937-5.65422,4.17052.48979,4.0332-6.99414c2.6245-1.68195,7.02395-4.7545,7.42188-6.74414.56818-2.84092,1.41992-5.39791,1.41992-9.94336s2.27344-4.2612,2.27344-11.93164s2.2729-15.62411,3.69336-19.0332c.95762-2.29828.40877-8.35114-.0625-12.17969c2.01845.67003,4.47402-3.79296,5.75781-7.13086c1.52455-3.96385,5.18913-7.19599,5.49414-14.20898c0,0,.61088-9.14807,1.22071-14.94141s.30439-13.11133-4.57422-13.11133c-.4979,0-.97046.0425-1.42774.10352c1.32251-2.13638,1.57049-4.82179,1.44727-7.3086-.0503-7.0953-1.11269-14.1503-.85742-21.25195.097-3.91596-1.38949-8.44926-1.57422-13.14648.11113-.1358.20139-.32233.25781-.60157-.69721-3.94543-2.12476-7.72469-3.27344-11.55664-1.21451-4.12934-3.31706-7.89017-5.5293-11.55078-1.95091-5.74881-3.17261-11.86669-10.32812-21.29687-.3616-.38849-1.09051-.98005-1.97266-1.64453-2.32881-3.71884-10.25959-7.1705-12.13476-10.11719-1.98864-3.125-14.48953-8.52344-18.4668-11.64844-2.00534-1.57561-13.24609-5.84375-13.24609-5.84375l.0117.0937c-.1364-.0726-.25329-.14227-.40235-.2168-4.60267-2.30134-12.44937-3.44033-15.37695-3.80664.2369-.12216-.027-.16992-1.38281-.16992Zm82.45312,152.16602c-.20192.4845-.41103.94334-.63672,1.33789-.0105.006-.0208.0139-.0312.0195.23567-.45253.44148-.9026.66797-1.35742ZM315.87305,433.625c.26748.43878.51435.87487.79101,1.31055-.0112-.005-.022-.0128-.0332-.0176-.26147-.37792-.5127-.82151-.75781-1.29297ZM428.05078,534.21875c-.0539.0793-.11269.1436-.17578.19727.0683-.0783.10869-.12095.17578-.19727Z" transform="matrix(.511881 0 0 0.511881-98.0369-101.075)" opacity="0" fill="#59f" stroke="#59f" stroke-width="5.86074"/></g><g transform="translate(-15.7617-19.0125)"><g transform="matrix(1.93467 0 0 1.93467-98.0369-101.075)"><g><g><path d="M90.115511,87.232568c-2.619637,3.863965-5.370256,9.823641-5.370256,12.901712s-.458436,9.43069-.06549,11.06797s1.113349,5.56673,1.178838,7.66244s2.619637,7.79341,3.732983,9.16872s2.423165,3.40553,3.667492,4.71535s1.571781,2.29218,3.405527,3.47102s2.947093,1.70276,4.977305,2.03022s3.92946.39294,5.23928.32745s5.63221-.7204,6.35262-1.24432s1.63727-.19648,3.20905-2.29219s5.30477-7.33498,5.95967-9.16873s1.83375-3.40552,2.03022-6.22163s1.04786-9.16873.91688-11.32993-.32746-3.66749-.45844-7.2695-1.17884-8.841272-2.03022-10.478543-2.61963-3.143564-3.99494-4.387892-.45844-1.440802-3.73299-2.423165-3.01258-.7204-7.33498-1.047856-3.40553-.523925-7.59695.06549-5.173776,1.113346-7.40047,2.357673-2.685126,2.095709-2.685126,2.095709Z" fill="#daab98" stroke-width="0.264583"/><path d="M396.74219,497.41797c-10.84553.28706-26.72485,8.5974-35.90235,13.96875c1.21614,1.12582,2.6479,2.26458,4.50586,3.45898c6.9307,4.45546,11.13926,6.43619,18.8125,7.67383s14.85224,1.4858,19.80274,1.23828s21.28695-2.72295,24.00976-4.70312c2.37773-1.72927,5.32211-1.00674,9.98633-6.07031-9.89823-5.49717-28.46213-15.00204-39.69531-15.55079-.49391-.0241-1.00132-.0293-1.51953-.0156Z" transform="matrix(.264583 0 0 0.264583 0 0)" fill="url(#e3XdyRI9iub81-fill)" stroke-width="1.11466"/></g><g><path d="M102.60759,110.71652c-.95268,2.75866-1.20974,5.32487-1.72365,7.32565-3.440072.63426-4.837372,1.30534-5.993761,3.11479-.726453.98653-.47947.91244-.545373,2.44649.0056,1.10458.128503,1.96538-.195037,3.09385-.792857,1.28026-1.364975,1.58769-2.236316,2.59564-2.16056-1.35511-3.467124-2.4287-4.263914-3.81926-.93414-1.91305-1.88314-6.8392-1.843859-8.76997-.26105-1.56306-.214546-2.85456-.232646-4.33414.081-1.49184-.259033-2.6467,4.052036-1.38653c2.03851.98708,4.642418.53191,6.113792.46152c1.180733-.0565,2.366885-.25187,4.160381-.30813l2.708347-.41991Zm-15.453507,9.78052c.0268.12887.0552.24491.0853.35088-.0299-.10661-.0585-.22217-.0853-.35088Zm.11111.44028c.008.0261.0163.0519.0248.076-.008-.0242-.0166-.0498-.0248-.076Zm9.40149,2.40295c-.006.002-.0112.003-.0165.005.005-.002.011-.003.0165-.005Zm-.10542.0424l-.009.006.009-.006Zm-.0765.0558c-.004.004-.007.007-.0103.0108.003-.004.007-.007.0103-.0108Z" fill="url(#e3XdyRI9iub83-fill)" stroke-width="0.278066"/><path d="M407.9968,418.45614c3.60068,8.72191,4.57227,13.02326,6.79871,19.16483.75194,7.50817,2.36683,9.50431,10.79413,14.32849c4.38404,3.6609,4.40419,3.95479,10.94162,8.7638c1.96425,4.22535,2.04271,4.3264,4.3352,8.85144c2.20554,4.02118,2.23702,4.62161,2.30742,7.82401.1558,3.13424,3.93702,11.44521,6.66211,8.15253c8.16589-5.12166,9.41091-16.28162,12.4224-20.11684c3.53062-7.23041,9.106-17.04209,7.53711-24.33949.98665-5.90763-1.46186-11.64117-1.39344-17.23331-.30624-5.63846,5.24037-12.56009-11.05344-7.79723-7.70458,3.7307-15.84249,2.3125-22.53906,2.3125-4.18397,0-8.6616.46851-15.15607.25569l-11.65669-.16642Zm23.87429,47.71183c.0209.006.0423.0116.0625.0176-.0202-.006-.0415-.0116-.0625-.0176Zm.39844.16015c.0122.007.0234.0145.0352.0215-.0117-.007-.0231-.0145-.0352-.0215Zm.28906.21094c.0139.0133.026.0272.0391.041-.0129-.0138-.0254-.0276-.0391-.041Z" transform="matrix(.264583 0 0 0.264583 0 0)" fill="url(#e3XdyRI9iub84-fill)" stroke-width="1.05096"/></g><g><g><path d="M125.13534,107.01328c.66606.16135,2.48955,2.90179,2.5728,3.62786s-2.1756,5.32454-2.92493,5.32454.34394-4.75981.34394-5.56656.008-3.38584.008-3.38584h.00019Z" fill="url(#e3XdyRI9iub87-fill)" stroke-width="0.268785"/><path d="M125.32069,107.47665c0,0,2.54359-1.28211,2.99628-.86697s-.63376,4.06841-.99591,3.32114-2.00037-2.45417-2.00037-2.45417Z" fill="url(#e3XdyRI9iub88-fill)" stroke-width="0.28435"/><path d="M127.46623,109.99574c0,0,.72607.24203.6454,2.09755s-1.05044,2.71065-1.45381,3.75942-1.24446,2.52492-1.80918,1.6375.52004-3.29938,1.73017-3.94477c.60774-1.06243.88742-3.5497.88742-3.5497Z" fill="url(#e3XdyRI9iub89-fill)" stroke-width="0.264583"/><path d="M125.14378,105.53499c0,0,.78963-.86378,2.08042-.86378s1.37148,1.93619,1.21013,3.46901-.3227,3.95307-.3227,3.95307-.56473-1.6135-.6454-2.09755.80675-2.50092.56472-3.06564-2.15448.48405-2.79259.61106c-.31649.063-.0946-2.00617-.0946-2.00617Z" fill="url(#e3XdyRI9iub90-fill)" stroke-width="0.264583"/></g><g transform="matrix(-.996335 0.085534 0.085534 0.996335 200.178-8.884)"><path d="M125.13534,107.01328c.66606.16135,2.48955,2.90179,2.5728,3.62786s-2.1756,5.32454-2.92493,5.32454.34394-4.75981.34394-5.56656.008-3.38584.008-3.38584h.00019Z" fill="url(#e3XdyRI9iub92-fill)" stroke-width="0.268785"/><path d="M125.32069,107.47665c0,0,2.54359-1.28211,2.99628-.86697s-.63376,4.06841-.99591,3.32114-2.00037-2.45417-2.00037-2.45417Z" fill="url(#e3XdyRI9iub93-fill)" stroke-width="0.28435"/><path d="M127.46623,109.99574c0,0,.72607.24203.6454,2.09755s-1.05044,2.71065-1.45381,3.75942-1.24446,2.52492-1.80918,1.6375.52004-3.29938,1.73017-3.94477c.60774-1.06243.88742-3.5497.88742-3.5497Z" fill="url(#e3XdyRI9iub94-fill)" stroke-width="0.264583"/><path d="M125.14378,105.53499c0,0,.78963-.86378,2.08042-.86378s1.37148,1.93619,1.21013,3.46901-.3227,3.95307-.3227,3.95307-.56473-1.6135-.6454-2.09755.80675-2.50092.56472-3.06564-2.15448.48405-2.79259.61106c-.31649.063-.0946-2.00617-.0946-2.00617Z" fill="url(#e3XdyRI9iub95-fill)" stroke-width="0.264583"/></g></g><g><path d="M96.217859,123.82347l16.704631,1.66359-.27036.98747c0,0-3.34399,1.84739-7.51378,1.64883s-6.155413-.29785-7.743905-1.63814c-1.021269-.91738-1.27711-1.32583-1.176586-2.66175Z" fill="url(#e3XdyRI9iub97-fill)" stroke-width="0.264583"/><path d="M362.07361,468.06284c.0385,3.42185.74456,2.4763,1.05094,4.75741.97167,2.06074,1.12429,2.67688,4.28771,6.10203c9.66894,6.42849,12.4375,6.99521,17.91416,8.55605c8.2157,1.37326,17.42569,1.6886,26.02921-.3427c7.15356-1.68896,8.85484-3.20399,12.9022-5.96377c4.20727-2.23069,4.70486-4.35337,4.70486-4.35337.64843-3.93701.62413-3.23726-3.547-3.65615-12.10765-2.99528-16.33261-4.02599-30.69892-3.04374-7.53246-2.90715-14.46067-4.05769-22.19921-4.32915-9.01814-.24631-11.15005.0409-10.44395,2.27339Zm7.68131,1.63537c14.05959,3.79606,16.77418,3.93387,26.44224,4.42109c12.88751,1.16917,15.68228.42719,25.53354,2.04669-16.6001,3.83287-12.16409,2.0896-25.14015,3.69929-7.79371-.7813-8.57804-1.40342-16.53385-2.56293-6.81152-1.91688-4.49424-2.20316-10.37676-3.87282-6.35144-4.97241-4.9273-4.63553.075-3.73131Z" transform="matrix(.264583 0 0 0.264583 0 0)" fill="url(#e3XdyRI9iub98-fill)"/></g><path d="M89.113069,104.55317c1.171196-1.38413,2.114874-1.63277,4.063442-1.91031.990219-.14104,4.380503-.14633,5.01733-.11404c1.634712.0608,3.192159.5152,4.194059.96203.74531.53236.85556,1.66523.80233,2.9429s-.21517,3.71099-1.97197,4.19011-8.114437.73371-9.39388.56644c-.937312-.25278-2.742922-.87988-3.06234-1.1993-.561044-1.12484-.72411-3.87144.351029-5.43783Z" fill="url(#e3XdyRI9iub99-fill)" stroke-width="0.264583"/><g><path d="M110.80667,117.15823c-1.00699.15257-2.37279.12925-3.10925.54575-1.01183.45305-1.08542.76492-1.32376,1.7457c1.18654-.56327,2.63534-.82527,3.71999-1.47069.41445-.24951.61828-.60808.71302-.8208Z" fill="#be775a" stroke-width="0.273816"/><path d="M379.62782,443.55931c4.45178,2.65247,7.27878,4.75797,16.66412,7.19687-.95513-2.77493-4.98054-6.56184-7.37847-7.65614-4.06968-2.22164-7.73638-1.79212-9.28565.45927Z" transform="matrix(.264583 0 0 0.264583 0 0)" fill="#be765a" stroke-width="1.37866"/><path d="M99.41522,116.50701c1.50629-.13098,1.17884-.32745,2.35768-.32745h2.8161l.7204.32745c0,0,1.11335-.26196,1.5063-.39294s1.24432-.32746,2.29218-.32746s1.83374.39295,1.83374.39295v1.04785c0,0,.26197-.19647-.98236.0655s-1.50629.13098-2.09571.65491-1.04785.85138-1.04785,1.11335.27781.47011-.63906.47011-1.50629-.13098-1.50629-.13098-.0159-.20815-.4088-.5356-.65491-.7859-1.11334-.98237-.72041-.52393-1.70277-.52393h-1.37531c-.523928,0-.65491-.85138-.65491-.85138Z" fill="url(#e3XdyRI9iub103-fill)" stroke-width="0.264583"/><path d="M106.75007,104.84941c-.13141.72601.007,1.46481.0346,2.19477.0303.42981.009.87158.19683,1.27209.31603.79146.47986,1.675.23769,2.50952-.1509.64777-.40486,1.26932-.65077,1.88169-.00087.67961-.11724,3.10815-.11824,3.78776c1.33062-.02,3.3955-.8669,4.49144-.31573.32342-1.59844-.50021-2.2993-.72094-2.75083-.36545-.58098-.9635-.98199-1.31-1.57148-.40913-1.17182-.89261-2.31678-1.33182-3.47719-.13862-.68394.0104-1.39918-.15868-2.07621-.18163-.50234-.42826-.9796-.6705-1.45444l.00039.00005Zm-3.16621,11.28595c-.13312.16703-.22858.29961-.0415.0512l.0415-.0512Z" fill="url(#e3XdyRI9iub104-fill)" stroke-width="0.264583"/><path d="M103.27918,105.17708c.0561.72057.23123,1.46107-.0101,2.16931-.19446.53323-.22568,1.10063-.26967,1.66063-.0898.69189-.51433,1.26942-.73089,1.92123-.24665.66723-.54321,1.33502-1.05813,1.84194-.62444.33891-.8941.79483-1.288934,1.39757-.380601.90005-.379238,2.02021-.506236,2.33925.70017.0642,1.01812-.14489,1.72343-.13639.60899.0186,1.7776.29609,2.38745.27826.42864-.0285-.0207-.48983.25625-.74434.43871-3.20628.52459-5.2632.4567-7.32797-.11294-.9621-.80164-2.44403-.95994-3.39946Z" fill="url(#e3XdyRI9iub105-fill)" stroke-width="0.264583"/><path d="M106.53975,104.61429c-1.13288-.36552-1.36945-.3384-2.07357-.15088-.46063.0882-.88428.37195-1.12158.77926.002.74421.22029,1.46561.29547,2.20314.11046.76641.0894,1.48088-.0965,2.36922-.007,1.3152-.3768,2.34483-.41749,3.44053-.27426,1.74991-.77933,3.20358.34109,3.28536.54904.35508,1.22492.43398,1.99087.41202s1.36645-.32063,1.98633-.7595c.34986-.46323.10802-2.50704.11583-3.03582-.12993-1.03888-.23345-2.08234-.21892-3.13054.01-.64529-.1825-1.26445-.4124-1.85974-.18335-.5234-.11385-1.08624-.18215-1.62905-.057-.60472-.0355-1.21715-.0993-1.8189-.001-.0644-.0741-.0723-.10768-.1051Z" fill="url(#e3XdyRI9iub106-fill)" stroke-width="0.264583"/></g><path d="M121.28841,103.34503c-1.292-1.10223-2.55971-1.82984-4.30507-2.59493-1.244-.54531-3.93751-.54904-5.0576-.3154-1.51389.70515-2.30619,1.36091-3.22755,2.17018-.74531.53236-.97637,2.5512-.92314,3.82887.17401,2.20391,1.06087,3.50963,3.30093,3.62631c2.52195.47913,7.99363.12967,9.51469-.48061.93731-.25278.9307-1.68531,1.25012-2.85043.0973-1.29798-.30742-2.54368-.55238-3.38399Z" fill="url(#e3XdyRI9iub107-fill)" stroke-width="0.264583"/><g><g><path d="M93.183054,105.69312c0,0,.864415-.53565,1.416371-.68946.866058-.24135,1.157374-.40648,2.036023-.41652.764602-.0956,2.104333-.0403,2.534424.24645.896528.47331.985108.69093,1.291918,1.4732.4811,1.26874-.15754.45088-3.021571.76531-2.236789.22892-2.888963.0469-3.805355-.44856-.854756-.3915-.453225-.93254-.45181-.93042Z" fill="url(#e3XdyRI9iub110-fill)" stroke="#000" stroke-width="0.15"/><g><g><path d="M367.72461,395.41797c-.89749.0139-1.74412.0676-2.45313.15625h-.0156-.0156c-.87556.01-1.5858.0621-2.22851.14844-1.137853,1.132741-1.778069,2.671784-1.7793,4.27734.001993,1.847174.848843,3.591956,2.29883,4.73633c1.34309-.0431,2.86299-.14446,4.71484-.33399c1.24894-.13712,2.37514-.21164,3.41016-.2539c1.063142-1.119874,1.657174-2.604296,1.66011-4.14844-.003219-1.668132-.695955-3.26071-1.91407-4.40039-.30523-.0371-.60923-.0748-.92773-.0996-.90528-.0705-1.85252-.0959-2.75-.082Z" transform="matrix(.264583 0 0 0.264583 0 0)" fill="#520" stroke-width="0.803747" stroke-linecap="round" stroke-linejoin="round"/><path d="M97.585061,105.83333c0,.108882-.043254.213305-.120245.290296s-.181414.120244-.290296.120244-.213305-.043253-.290296-.120244-.120245-.181414-.120245-.290296.043254-.213305.120245-.290296.181414-.120244.290296-.120244.213305.043253.290296.120244.120245.181414.120245.290296Z" stroke-width="0.054613" stroke-linecap="round" stroke-linejoin="round"/></g><g><path d="M98.446573,105.83333c.000003.319007-.134015.624949-.372572.850522s-.56211.352298-.899481.352298-.660925-.126725-.899481-.352298-.372575-.531515-.372572-.850522.134019-.624945.372575-.850515.562108-.352295.899478-.352295.660921.126724.899478.352295.372575.53151.372575.850515Z" opacity="0.5" fill="url(#e3XdyRI9iub116-fill)" stroke-width="0.164546" stroke-linecap="round" stroke-linejoin="round"/><path d="M363.05078,400.49219c-.60941.021126-1.202458.159106-1.74609.40625.2286,1.515377,1.024504,2.887265,2.22656,3.83789c1.29713-.0416,2.7717-.14033,4.54102-.31836-.243651-1.161063-.921374-2.211495-1.89649-2.93945-.910499-.675286-2.017314-1.024625-3.125-.98633Z" transform="matrix(.264583 0 0 0.264583 0 0)" opacity="0.25" fill="url(#e3XdyRI9iub117-fill)" stroke-width="0.621905" stroke-linecap="round" stroke-linejoin="round"/><path d="M367.72461,395.41797c-.40008.006-.78368.0214-1.15625.043.244576,1.15968.922202,2.208569,1.89648,2.93554c1.401415,1.039561,3.225357,1.279517,4.76563.62696-.216776-1.311521-.860022-2.514947-1.83008-3.42383-.30463-.037-.60794-.0749-.92578-.0996-.90528-.0705-1.85252-.0959-2.75-.082Z" transform="matrix(.264583 0 0 0.264583 0 0)" opacity="0.25" fill="url(#e3XdyRI9iub118-fill)" stroke-width="0.621905" stroke-linecap="round" stroke-linejoin="round"/></g></g></g><g><path d="M118.47149,105.48136c0,0-.9066-1.15623-1.59434-1.48663-.68961-.3313-1.08929-.52071-2.78549-.5355s-2.89412,1.1248-3.27582,2.21593c-.23146,1.51926-.41966,1.45721,2.10547,1.2958c2.22722-.0834,2.95075-.22089,4.0159-.44716s2.0958-.0733,1.53428-1.04244Z" fill="url(#e3XdyRI9iub120-fill)" stroke="#000" stroke-width="0.15"/><g transform="matrix(1.34948 0 0 1.34948-16.7157-37.6255)"><g><path d="M98.35914,105.83333c-.000001.654248-.530375,1.18462-1.184623,1.18462s-1.184622-.530372-1.184623-1.18462.530375-1.18462,1.184623-1.18462s1.184622.530372,1.184623,1.18462Z" fill="#520" stroke-width="0.157585" stroke-linecap="round" stroke-linejoin="round"/><path d="M97.478739,105.83333c-.000001.168017-.136206.30422-.304222.30422s-.304221-.136203-.304222-.30422.136206-.30422.304222-.30422.304221.136203.304222.30422Z" stroke-width="0.040469" stroke-linecap="round" stroke-linejoin="round"/></g><g><path d="M98.117143,105.83333c.000002.236392-.09931.463103-.276087.630258s-.416538.261062-.666539.261062-.489763-.093907-.666539-.261062-.276089-.393866-.276087-.630258.09931-.463103.276087-.630258.416538-.261062.666539-.261062.489763.093907.666539.261062.276089.393866.276087.630258Z" opacity="0.5" fill="url(#e3XdyRI9iub126-fill)" stroke-width="0.121933" stroke-linecap="round" stroke-linejoin="round"/><path d="M96.959079,106.12327c-.281552-.208839-.649419-.252686-.955014-.11383.046361.309406.213236.58791.464201.77472.251376.186257.566226.26551.875826.22046.044599-.332687-.103706-.672179-.385013-.88135Z" opacity="0.25" fill="url(#e3XdyRI9iub127-fill)" stroke-width="0.121933" stroke-linecap="round" stroke-linejoin="round"/><path d="M97.880621,104.8824c-.246608-.183136-.55471-.263321-.859307-.22364-.035873.326232.112148.655463.386674.86005.274782.203969.632503.251098.93459.12313-.049546-.30355-.215209-.57593-.461957-.75954Z" opacity="0.25" fill="url(#e3XdyRI9iub128-fill)" stroke-width="0.121933" stroke-linecap="round" stroke-linejoin="round"/></g></g></g></g></g><g><g><path d="M323.32422,401.01172c-2.16054.479-5.37793.84685-7.7461,1.07812.41427,2.46439,3.756,22.38503,4.02344,26.39649.28409,4.26138,2.55789,16.47657,3.41016,19.60156.62051,2.27518.34262,4.54273.91016,5.2832l1.6463.9668c1.52577-4.61082-1.61546-20.46387-1.7049-28.125c0-7.64593,2.81934-16.70212-.53906-25.20117Z" transform="matrix(.264583 0 0 0.264583 0.000001 0)" fill="#232323" fill-opacity="0.980392"/><path d="M469.82422,396.00195c-1.67463.77197-2.40494,2.62617-2.40494,5.5612.98689,9.02781,1.04754,14.91787,1.04752,22.0931.28422,4.82952,1.28492,11.0837,1.13476,14.20508l-.74906,15.57102c0,0,3.59014-9.60529,4.44242-13.01438s.85352-9.37534.85352-13.63672s1.70312-8.52273,1.70312-12.5c0-2.88547-.79752-7.89514-.20508-14.83398-.0279.021-.0499.0394-.0781.0605-1.8035,1.35263-4.24836-6.71517-6.15067-9.41498l.40651,5.90916Z" transform="matrix(.264583 0 0 0.264583 0 0)" fill="#232323" fill-opacity="0.980392"/><path d="M125.18912,91.549955c-1.5223,1.367777-2.53296,1.458446-2.65541,2.421784.19106,1.157681-.33897,2.367869-.30611,2.899711-.0561,1.86432.44229,3.6844.77696,5.50411.21342.80006.67707-.26388.87967-.53896.2912.2019.12267,1.52788.31587,1.93052-.43505,2.02253-1.05004,2.70247.78588,1.89473.47526.57112,1.21323-.27717,1.57678-.59776.60578-.5984.70702-1.49057.66694-2.29944-.0133-1.8773-.29443-3.743778-.22689-5.622756.026-1.049359-.37961-2.265953-.42001-3.525779-.13314-.844281-.25815-1.363097-1.39368-2.06616Z" fill="#282828" stroke-width="0.264583"/><path d="M117.51171,87.421289l2.00199,5.940815c.50826-.5838.8771.344924.8698.795621.0994.332758.0215,1.240909.1284,1.245097.28197-.60421.56393-1.208418.84589-1.812629.009,1.081443-.0579,2.196455.2513,3.244231.40218.607478.66243-.647507,1.17309-.620879.11841-.574135-.0462-1.191678.0974-1.766234.48193.309118.85012,1.040112,1.53267,1.150676.49987.266134,1.23823-.01292.84199-.636384-.1788-.46519-.46807-1.131676-.0135-1.525984.45357-.37709,1.27487.75602,1.41368.06896-.18447-1.043897-.56213-2.04412-.86605-3.05799-.32134-1.092555-.87781-2.087412-1.46313-3.055948-.51618-1.521039-.83961-3.140051-2.73284-5.635121-.39432-.423642-2.39633-1.734068-2.39633-1.734068l-1.68436,7.399837Z" fill="#2b2b2b" stroke-width="0.264583"/><path d="M109.46946,74.015567l1.41423,11.693512c0,0,3.72096,2.985489,4.11911,3.544213.37221.856157,1.28302,2.652736.60203.257347c1.16336,1.699392,2.41019,2.127115,2.41019,2.127115s-.23514-1.407684.89235-.571532c1.12749,1.052319.005-1.82436.0802-3.402841s.37578.000265,1.50327.07545-.75195-1.278006-1.7291-3.081983.52625-.826963,1.9544.375687.37587-.150283.15038-1.503267-1.27772-1.653601-.52606-1.503267s1.27781.526253.82682-.526066-2.78113-2.029333-3.30729-2.856156-3.83369-2.25516-4.88601-3.081983c-.53058-.41688-3.50452-1.546228-3.50452-1.546228Z" fill="#2d2d2d" stroke-width="0.264583"/><path d="M105.29745,72.975906c-4.98889.686906.51963,8.872516,1.1374,12.507764c0,.867061-.11742,1.319017.0134,1.620057.78828.33692.80194,2.706886,1.41452,1.837613.75166-.826823,1.80141-1.336236,2.87476-2.254012c1.14143-.975976-.0385-1.125606,1.45967,1.652498c1.12749,1.202653,3.29843,2.301946,2.77227,1.775785s-.4168-2.301991-1.24363-2.752987-1.12762-3.006251-2.10478-4.584731-.60114-1.353029-.22531-.977202s1.42777,1.052087,1.27744.07493-.30029-1.578388-1.27744-3.006534-.0753-.901989,1.20251,0s.30061-.526019-.15038-1.20251-2.5554-2.555918-2.5554-2.555918.97673-.37592-.52658-1.12758c-1.21779-.608896-3.2939-.910254-4.06849-1.007173Z" fill="#2b2b2b" stroke-width="0.264583"/><path d="M104.93158,72.930948c-1.35298,0-3.60443.199472-3.60443.199472-6.086631,5.475216-5.280845,3.284677-6.148792,14.715071c1.792536,2.042428.382473,1.651096,1.428342-.576595c2.197031-1.692932,1.511361-1.624272,2.38674.09373.979189,1.921732.454941,2.313787,1.65365.225827c2.58217-1.655617-.834066,2.631943,2.25464-.676444.22436,2.786528.24453-.26556,1.20303,2.555399c1.04496-1.199785.30047-3.382648,1.87895-2.25516.0221,1.732759.0166,1.165338.52607,0c.13485-1.711918.52574-3.345601,1.27795-4.735111.60133-1.127484,1.20232-.826965.601-1.277958s-.8265-.751467-1.42782-1.052132-1.6536-.601654-.67644-1.879473.67631-.826727.22531-2.179711-1.20252-1.202791-2.02934-2.104782s1.80413-1.052131.45114-1.052131Z" fill="#282828" stroke-width="0.264583"/><path d="M101.32715,73.13042c-.16795-.007-.37964.02611-.60513.101285-.90199.300662-4.820897,2.046904-4.820897,2.046904-1.018657.675695-3.113308,1.813467-3.601474,2.560902-1.036133,1.46849-2.442893,6.635445-.221549,11.101829-.0011.0068-.0026.02328-.0036.03049.315272.331785.799462,2.005235.680061,1.057995.311986-1.521881-.375687-1.765165,1.277959-1.689997s1.427818,2.029711,1.427818.751893.300945-2.480329.902272-4.509802s1.428057-2.029569,3.83335-3.608049.60105-.601654-.902264-1.05265.902114-.676069,2.104774-1.953884.0002-1.052746-1.05213-1.353408-3.607855.751893-2.179706-.07493s1.277634-1.428101,2.705776-2.33009c1.07111-.676494.9586-1.057349.45475-1.078486Z" fill="#252525" stroke-width="0.264583"/><path d="M95.901123,75.278609c-.07399-.0035-.196231.03885-.365353.132807-.676492.375828-2.330514,1.352982-2.856675,1.653646s-3.307196,2.405491-3.833357,3.081983-4.209044,5.487003-4.209044,5.487003l3.8873,5.995676c.421238.223959,1.586108,2.170766,1.635088,1.876903.07517-.450992-.261117-2.83629.03955-3.963773s-.300615-2.25516.150378-1.428337.376066.375875.751893.977202.751375,2.78113.751375,2.480468.150656-2.104686.225827-2.630847-.751988-1.352984-.225827-2.480469s1.202936-2.405115,1.729094-2.705777-1.12772-1.729047-.751893-2.405539s1.428385-.902081,2.405539-1.954403-.30085-.751615-1.428337-.676444-1.427912-.225309-.901753-1.052131s1.428101-.375971,2.33009-1.277959c.676492-.676487.888082-1.099439.66611-1.110009Z" fill="#232323" stroke-width="0.264583"/><path d="M89.681345,79.782727c-.0019.0013-.02734.04454-.08371.138491-.450993.751657-2.555917,2.856675-2.555917,2.856675s-1.803694,2.329994-2.40502,2.856155-.751705,2.029286-.977202,2.705778-.902084,1.804164-1.12758,2.25516-.676206,2.480469-.751374,3.307291.07493,4.359424.07493,4.359424.09291,3.295289.249428,4.649329c.202856.93701,1.396386,3.50244,1.396386,3.50244s1.159383,1.56365,2.183926-.0344c-.09564-2.42859-.07498-3.00503.692666-1.23352.457364,1.05547.194659-3.30803,1.225627-1.57107.487788.82182-.09405-1.54769-.115356-3.12254-.09162-.751657-1.00757-2.048972.4459-.35425-.722151-4.621601,2.094934-2.705909,1.814208-7.718287-1.157671-1.786917-1.581968-4.78532-1.804268-5.167127-.375827-.601327.300805-2.705963.451136-4.134115.131538-1.24963,1.298556-3.304654,1.286224-3.295404Z" fill="#212121" stroke-width="0.1"/></g><g><path d="M94.306929,100.68431c1.265302-.089,2.357673.0394,3.209057.0394s1.633054.0123,2.517384.23323c1.21101.37778,1.6766.39535,1.5666.43935c0,0,.73624,1.75315.0813,1.49118s-1.07499-.47746-1.991859-.60845-1.256584-.11451-2.304437-.11451h-3.863965l-2.883248.66528c.994727-.79432,2.357302-1.97036,3.669138-2.14547Z" fill="#333" stroke="#333" stroke-width="0.2" stroke-opacity="0.705882"/><path d="M116.63533,98.667779c-1.17884-.26196-2.62386-.339704-3.47524-.339704s-2.15864.604334-3.04297.825264c-1.21101.37778-2.17573,1.353601-2.1722,1.024941c0,0,.082,1.89964.6304,1.37149.65491-.26196,1.28149-.89657,2.0919-1.29374.91687-.39716,1.25835-.547987,2.46414-.646863c1.16184-.09527,2.16784.08132,3.49132.532363l2.73031.95825c-1.07846-1.389643-1.32059-1.837148-2.71766-2.432001Z" fill="#333" stroke="#333" stroke-width="0.2" stroke-opacity="0.705882"/></g><g><path d="M95.604048,120.9319c-1.294253,1.48211-1.363608,1.46956-2.162359,5.12914-.357036,2.194-1.072884,3.20376-1.029772,4.25533c2.283782-.65014,2.282241-1.49949,3.123822-3.8057-.629057-2.70161-.519024-3.743.699841-4.19222c5.50781.0496,5.30567.19427,8.48784.8666c3.62893-.0723,5.94792.27434,9.4015,1.48697.5443,1.94128.34226,1.64382-.014,2.90739.28352,2.20116,2.03186,3.21829,3.04056,2.68355-.5583-1.92498-.30242-3.42374-.66569-4.94362-.3621-1.51495-1.78275-1.71423-2.25399-2.48181-1.84576-1.14829-1.8323-1.0869-4.01151-2.11999-1.43792-.70911-1.12617-.90314-4.18191-.24248-1.39293.0977-1.21262.089-3.67138-.66318-1.51867-.12201-3.209033-.0924-4.400012.33297-1.07951.24737-1.224081.13646-2.36295.78705Z" opacity="0.5" fill="#333" stroke="#333" stroke-width="0.264583" stroke-opacity="0.705882"/><path d="M101.6469,130.29731c0,0,1.12745.49938,2.8563.49938s2.98728-.17566,2.98728-.17566c2.81732-.63941,2.20432-.52087,1.02935.89304-.52535.60285-1.78283,1.82533-3.00303,1.94978-1.65885-.25225-1.8062-.68618-2.58465-1.33364-.85669-.72989-1.4681-.73609-1.28525-1.8329Z" opacity="0.5" fill="#333" stroke-width="0.264583"/></g><g><path d="M469.31836,440.41797c-1.47403,13.47361-.48528,9.23244-2.27344,17.61328-1.24263,7.56618-2.09348,2.09258-4.36622,7.2062.15276,6.08023-2.82124,3.33536-3.0386,5.44489-.59665,5.79055-4.3289,2.67988-4.5971,8.93875-.85229,3.03707-.78128,4.83009-.78128,7.95508s-.28422,5.39773,0,9.375s1.98828,9.0918,1.98828,9.0918s8.80682-5.1142,9.375-7.95508s1.41992-5.39791,1.41992-9.94336s2.27344-4.2612,2.27344-11.93164s2.2729-15.62411,3.69336-19.0332c1.21955-2.92688-.014-12.11035-.4043-14.77539l-3.00586-1.90821-.2832-.07812Z" transform="matrix(.264583 0 0 0.264583 0 0)" fill="#282828"/><path d="M85.989582,119.3834c.826823,1.12749,1.026351,1.44738,1.277819,3.0818.403374,2.62174.639884.75875,2.05347,2.40335.04211,2.04796-.412806,1.44822,1.237294,2.24945c1.085375.7206.518688,1.70518,2.012947,2.49895c1.655606,3.45605,1.118429,1.75991.108219,2.99562-.580723.71035-1.653646,1.57848-2.104639,2.02947s-1.347474-.70208-1.706777-1.8516c-.305004-.9758-1.154524-1.07841-1.294343-2.13218-.15033-1.13299-.623363.28254-.746148-1.5289-.606836-1.24673-.98537-.19883-.804789-2.79409.244322-3.51133-.403385-1.40021-.311683-3.05427.0795-1.43384-.02204-3.29627-.02204-3.29627l.30067-.60133Z" fill="#1e1e1e" stroke-width="0.264583"/><path d="M350.15054,493.44005c-.26089,2.32537-4.83833-.18835-1.87923,4.91583c1.64191,2.83215-5.56914.10242-3.91964,3.94135c2.27166,4.74133-6.3451,3.15547-3.80374,6.51895c1.03735,2.78522,2.9693,1.18901,3.74872,5.7068.85228,3.79732,3.26114,1.91937,6.69396,8.56491c3.28223,6.35401,4.64216-.6181,7.54553,7.44794c7.57433,4.8735,7.63746.055,12.95807,5.9668c5.36913-8.66062.59552-12.0489,3.40115-17.51766-3.09591-4.52691-4.22213-8.06084-9.1045-12.41511-6.65901-1.35801-4.88441-1.87803-7.58699-6.34758-3.55721-.20301-7.1294-5.59251-8.05333-6.78223Z" transform="matrix(.264583 0 0 0.264583 0 0)" fill="#212121"/><path d="M368.16857,512.32181c4.52438,4.30749,2.04883,8.34863-1.17924,8.59586c3.42904,7.8197-1.92749,8.90056,3.12786,14.01788c3.01324,2.44135,6.03375,2.42192,7.72461,5.48242c3.30588-1.02053,10.8981,2.81573,14.25508.76219c6.07793-3.71802,5.60487,2.05318,11.02812-.0131c7.18747-2.73849,8.18651,1.9505,13.75234-1.80757c5.1913-3.00905,7.95544-.68521,10.96446-4.90829c4.47805-5.13961,6.44088-6.06579,5.20265-12.77062-.28411-1.42046.72083-12.51481-1.55192-10.24207s-10.10015,2.9867-13.94291,4.06068c-3.52892.98626-9.3265,1.57653-14.7646.65361-6.44198-1.09329-9.32462-1.1905-13.74936.36553-4.26138-.56817-8.1132,1.59192-10.38591-.11264-2.19618-1.64712-6.45487-3.31295-10.48118-4.08385Z" transform="matrix(.264583 0 0 0.264583 0 0)" fill="#232323"/><path d="M455.39844,480.47461c0,0-3.1509,7.06344-6.26312,6.92086-2.70808,6.85501-2.98427,10.23361-9.05243,13.79117-1.04593,7.43853.10409,3.12428-6.19804,8.01874-5.2053,5.378-10.30813,13.10371-6.19901,9.64252c3.63592-.43375,6.07617,2.03144,3.29209,4.64077-2.44082,5.17857-1.99981,10.11022-3.13616,10.9625-.003.002-.009.006-.0117.008.00096.0204.0117.27735.0117.27735s9.32245-2.84034,11.07812-7.67188c5.68184-1.13635,6.81801-2.83985,8.80664-5.96484s4.7393-2.73898,6.44383-9.2725c.89856-6.05285,4.65481,1.4248,3.95227-8.7804c2.66632-7.08931,3.20574-7.23661-2.73735-9.85255c2.99626-6.69888-.54196-10.9528.14008-12.64143l-.12692-.07831Z" transform="matrix(.264583 0 0 0.264583 0.000001 0)" fill="#252525"/></g></g></g></g><g transform="translate(-15.7617-19.0125)"><g transform="matrix(1.93467 0 0 1.93467-98.0369-101.075)"><path d="M88.568743,108.35278c0,0-1.333444-3.93015,3.368702-4.28105s8.351565-.42109,10.035915.14036c1.81727.60576-.28072,5.75486-.28072,5.75486s-2.245802,1.05272-5.474139,1.1229-5.193414.35091-6.246133-.49127-1.403625-2.2458-1.403625-2.2458Z" opacity="0.95" fill="#c6dcf2" stroke-width="0.264583"/><path d="M118.18996,103.05092c-.13651-.002-.27807-.00026-.42529.006-4.71127.1928-7.41786.38934-9.61285,1.07884-.49469.33155-.50396.57069-.57891,1.44373-.0354,1.67494.32832,2.83481.96524,4.2973c0,0,2.56678.94677,5.78173.64479s5.19918-.24938,6.14794-1.20716s1.13585-2.39262,1.13585-2.39262.81836-3.80786-3.41375-3.87056l.00004-.00032Z" opacity="0.95" fill="#c6dcf2" stroke-width="0.264583"/><path d="M446.70117,389.48438c-.51536-.008-1.04972-.002-1.60547.0215-17.80637.72869-28.036,1.47214-36.33203,4.07812-1.86969,1.25311-1.90618,2.15736-2.18945,5.45704-.1338,6.33048,1.24118,10.71466,3.64844,16.24218c0,0,5.23179,1.91868,12.81054,2.49414c6.61855-1.96784,13.79819-5.03123,19.40625-9.8457c7.56777-6.49685,10.46802-12.63096,11.54883-16.92578-1.82482-.89632-4.19604-1.47548-7.28516-1.52148l-.00195-.00002Z" transform="matrix(.264583 0 0 0.264583 0 0)" fill="url(#e3XdyRI9iub157-fill)"/><path d="M370.72266,392.31445c-.0828-.00042-.17846.002-.26172.002-14.22188.60735-23.48484,1.27905-30.84766,3.06445-4.12873,2.2322-5.31072,5.81283-5.48437,8.81836.10169,2.27903.4254,4.32872.93554,6.32617.58702,1.68622,2.06846,5.14853,4.98828,7.48438.66619.53294,1.43895.93916,2.30469,1.25781c1.46464.32835,3.20537.65639,5.20703.91406c1.15996.0632,2.44245.0716,3.81055.0547c6.38878-1.97436,13.20892-4.97006,18.58789-9.58789c7.56779-6.49686,10.46804-12.63096,11.54883-16.92578-.95288-.46804-2.06065-.84701-3.33594-1.11133-2.20771-.18434-4.69168-.28272-7.45312-.29688Z" transform="matrix(.264583 0 0 0.264583 0 0)" fill="url(#e3XdyRI9iub158-fill)"/><path d="M95.189536,103.35286c-1.572165.0937-3.149018.19653-4.706982.4321-.552119.10194-1.097502.27331-1.467948.72523-.339947.37254-.593328.81285-.924301,1.19503-.0993.4617-.72657.37353-.912172.38719.06391.41525.127817.83049.191728,1.24574.614526.0361.948272.66381,1.237199,1.13094.121801.26393.03953-.2957.06349-.42751.0063-.62831-.01299-1.25766.01021-1.88528.201158-.52592.443156-1.13917,1.030108-1.33582.855297-.40914,1.794634-.57186,2.732786-.64687c1.180047-.10914,2.355503-.28909,3.54412-.24962c1.821693.0198,3.651414-.0434,5.463046.18647c1.54022.67855,1.39442,1.17951.98942-.41329l-1.25259-.0676c-1.997915-.11902-3.997731-.21211-5.998116-.27674Z" fill="#584e58" stroke-width="0.267992"/><path d="M87.349485,106.09124l-1.752849-.0628c-.930954-.0333-1.791046-.0164-2.551533-.12819.09485.80056.666976.81923,1.44214,1.00724c1.559928.36313,1.238115.45165,2.877649.43077l-.015407-1.24702Z" fill="#6a6051" stroke-width="0.264583"/><path d="M106.20528,104.57342c.41817.15106.5611.23871.78448.3682.0859.24026.27111.39388.27111.78233s.0501.49205.0749,1.03587.0742,1.55424.34727,2.14985.51597,1.18885.61528,1.18885.3456-.33946.12222-.75379-.43986-1.23807-.48945-1.70421c-.0497-.46614-.27285-2.04594-.22325-2.3826.0348-.23592.0722-.76318.23513-1.23651.0844-.37912-.13325-.30522-.48329-.23913l-2.12003-.00001h-2.54801c-.11653,0-.23685-.0386-.3514-.0851l.00002.00001-.13191.32423c.1629.47333.20035,1.00059.23512,1.23651.0496.33666-.1736,1.91646-.22324,2.3826s-.37245,1.47599-.59583,1.89035.0495.64741.14883.64741.42203-.67299.69505-1.26862.32244-1.60602.34727-2.14985.0749-.64741.0749-1.03586.002-.52626.22525-.65573c.22338-.12948.74844-.34374,1.12075-.44733s.54194-.1023,1.1406-.0563c.31907.003.50056.006.72791.009l.00032-.00017Z" fill="#635453" stroke-width="0.270259"/><path d="M116.86935,102.78546c-1.64068.0424-3.27457.23368-4.9168.23578-1.42384.0976-2.82913.37235-4.21908.68664.34709-.0345-.15336,1.05273.31133.52307.93171-.33482,1.90356-.57562,2.88388-.71459c1.2557-.10034,2.51834-.0889,3.77227-.22488c1.47073-.10724,2.95262-.13285,4.42279-.0139.7926.1211,1.64034.52241,2.01085,1.26933.34123.83526.13307,1.77263.35553,2.63209.35931.18636.2398-.69644.40762-.93731-.0573-.41181.24398-.4047.55411-.41.29271-.0238.58542-.0475.87813-.0713.10067-.37104.37456-1.06814-.007-1.29039-.53994.008-1.07988.0162-1.61982.0243-.0118.18347-.34936-.56061-.50049-.71985-.47151-.63613-1.35162-.68933-2.06821-.82467-.75032-.10694-1.50605-.19114-2.26464-.16436l-.00047.00004Z" fill="#554a49" stroke-width="0.265726"/><path d="M123.35629,104.46959c.22382-.0238.8432-.13444,1.21621-.20585s2.03375-.10993,2.40676-.10993.0663.53348-.26854.76145c-.33488.40343-.54664.32442-1.26784.51484s-2.11139.33037-2.11139.33037l.0248-1.29088Z" fill="#786461" stroke-width="0.259355"/></g></g>
<script><![CDATA[
!function(t,n){"object"==typeof exports&&"undefined"!=typeof module?module.exports=n():"function"==typeof __SVGATOR_DEFINE__&&__SVGATOR_DEFINE__.amd?__SVGATOR_DEFINE__(n):((t="undefined"!=typeof globalThis?globalThis:t||self).__SVGATOR_PLAYER__=t.__SVGATOR_PLAYER__||{},t.__SVGATOR_PLAYER__["5c7f360c"]=n())}(this,(function(){"use strict";function t(t,n){var e=Object.keys(t);if(Object.getOwnPropertySymbols){var r=Object.getOwnPropertySymbols(t);n&&(r=r.filter((function(n){return Object.getOwnPropertyDescriptor(t,n).enumerable}))),e.push.apply(e,r)}return e}function n(n){for(var e=1;e<arguments.length;e++){var r=null!=arguments[e]?arguments[e]:{};e%2?t(Object(r),!0).forEach((function(t){u(n,t,r[t])})):Object.getOwnPropertyDescriptors?Object.defineProperties(n,Object.getOwnPropertyDescriptors(r)):t(Object(r)).forEach((function(t){Object.defineProperty(n,t,Object.getOwnPropertyDescriptor(r,t))}))}return n}function e(t){return(e="function"==typeof Symbol&&"symbol"==typeof Symbol.iterator?function(t){return typeof t}:function(t){return t&&"function"==typeof Symbol&&t.constructor===Symbol&&t!==Symbol.prototype?"symbol":typeof t})(t)}function r(t,n){if(!(t instanceof n))throw new TypeError("Cannot call a class as a function")}function i(t,n){for(var e=0;e<n.length;e++){var r=n[e];r.enumerable=r.enumerable||!1,r.configurable=!0,"value"in r&&(r.writable=!0),Object.defineProperty(t,r.key,r)}}function o(t,n,e){return n&&i(t.prototype,n),e&&i(t,e),t}function u(t,n,e){return n in t?Object.defineProperty(t,n,{value:e,enumerable:!0,configurable:!0,writable:!0}):t[n]=e,t}function a(t){return(a=Object.setPrototypeOf?Object.getPrototypeOf:function(t){return t.__proto__||Object.getPrototypeOf(t)})(t)}function l(t,n){return(l=Object.setPrototypeOf||function(t,n){return t.__proto__=n,t})(t,n)}function s(){if("undefined"==typeof Reflect||!Reflect.construct)return!1;if(Reflect.construct.sham)return!1;if("function"==typeof Proxy)return!0;try{return Boolean.prototype.valueOf.call(Reflect.construct(Boolean,[],(function(){}))),!0}catch(t){return!1}}function f(t,n,e){return(f=s()?Reflect.construct:function(t,n,e){var r=[null];r.push.apply(r,n);var i=new(Function.bind.apply(t,r));return e&&l(i,e.prototype),i}).apply(null,arguments)}function c(t,n){if(n&&("object"==typeof n||"function"==typeof n))return n;if(void 0!==n)throw new TypeError("Derived constructors may only return object or undefined");return function(t){if(void 0===t)throw new ReferenceError("this hasn't been initialised - super() hasn't been called");return t}(t)}function h(t,n,e){return(h="undefined"!=typeof Reflect&&Reflect.get?Reflect.get:function(t,n,e){var r=function(t,n){for(;!Object.prototype.hasOwnProperty.call(t,n)&&null!==(t=a(t)););return t}(t,n);if(r){var i=Object.getOwnPropertyDescriptor(r,n);return i.get?i.get.call(e):i.value}})(t,n,e||t)}function v(t){return function(t){if(Array.isArray(t))return y(t)}(t)||function(t){if("undefined"!=typeof Symbol&&null!=t[Symbol.iterator]||null!=t["@@iterator"])return Array.from(t)}(t)||function(t,n){if(!t)return;if("string"==typeof t)return y(t,n);var e=Object.prototype.toString.call(t).slice(8,-1);"Object"===e&&t.constructor&&(e=t.constructor.name);if("Map"===e||"Set"===e)return Array.from(t);if("Arguments"===e||/^(?:Ui|I)nt(?:8|16|32)(?:Clamped)?Array$/.test(e))return y(t,n)}(t)||function(){throw new TypeError("Invalid attempt to spread non-iterable instance.\nIn order to be iterable, non-array objects must have a [Symbol.iterator]() method.")}()}function y(t,n){(null==n||n>t.length)&&(n=t.length);for(var e=0,r=new Array(n);e<n;e++)r[e]=t[e];return r}function g(t,n,e){if(Number.isInteger(t))return t;var r=Math.pow(10,n);return Math[e]((+t+Number.EPSILON)*r)/r}Number.isInteger||(Number.isInteger=function(t){return"number"==typeof t&&isFinite(t)&&Math.floor(t)===t}),Number.EPSILON||(Number.EPSILON=2220446049250313e-31);var d=p(Math.pow(10,-6));function p(t){var n=arguments.length>1&&void 0!==arguments[1]?arguments[1]:6;return g(t,n,"round")}function m(t,n){var e=arguments.length>2&&void 0!==arguments[2]?arguments[2]:d;return Math.abs(t-n)<e}p(Math.pow(10,-2)),p(Math.pow(10,-4));var b=Math.PI/180;function w(t){return t}function A(t,n,e){var r=1-e;return 3*e*r*(t*r+n*e)+e*e*e}function _(){var t=arguments.length>0&&void 0!==arguments[0]?arguments[0]:0,n=arguments.length>1&&void 0!==arguments[1]?arguments[1]:0,e=arguments.length>2&&void 0!==arguments[2]?arguments[2]:1,r=arguments.length>3&&void 0!==arguments[3]?arguments[3]:1;return t<0||t>1||e<0||e>1?null:m(t,n)&&m(e,r)?w:function(i){if(i<=0)return t>0?i*n/t:0===n&&e>0?i*r/e:0;if(i>=1)return e<1?1+(i-1)*(r-1)/(e-1):1===e&&t<1?1+(i-1)*(n-1)/(t-1):1;for(var o,u=0,a=1;u<a;){var l=A(t,e,o=(u+a)/2);if(m(i,l))break;l<i?u=o:a=o}return A(n,r,o)}}function x(){return 1}function k(t){return 1===t?1:0}function S(){var t=arguments.length>0&&void 0!==arguments[0]?arguments[0]:1,n=arguments.length>1&&void 0!==arguments[1]?arguments[1]:0;if(1===t){if(0===n)return k;if(1===n)return x}var e=1/t;return function(t){return t>=1?1:(t+=n*e)-t%e}}var O=Math.sin,j=Math.cos,M=Math.acos,E=Math.asin,P=Math.tan,I=Math.atan2,R=Math.PI/180,F=180/Math.PI,N=Math.sqrt,T=function(){function t(){var n=arguments.length>0&&void 0!==arguments[0]?arguments[0]:1,e=arguments.length>1&&void 0!==arguments[1]?arguments[1]:0,i=arguments.length>2&&void 0!==arguments[2]?arguments[2]:0,o=arguments.length>3&&void 0!==arguments[3]?arguments[3]:1,u=arguments.length>4&&void 0!==arguments[4]?arguments[4]:0,a=arguments.length>5&&void 0!==arguments[5]?arguments[5]:0;r(this,t),this.m=[n,e,i,o,u,a],this.i=null,this.w=null,this.s=null}return o(t,[{key:"determinant",get:function(){var t=this.m;return t[0]*t[3]-t[1]*t[2]}},{key:"isIdentity",get:function(){if(null===this.i){var t=this.m;this.i=1===t[0]&&0===t[1]&&0===t[2]&&1===t[3]&&0===t[4]&&0===t[5]}return this.i}},{key:"point",value:function(t,n){var e=this.m;return{x:e[0]*t+e[2]*n+e[4],y:e[1]*t+e[3]*n+e[5]}}},{key:"translateSelf",value:function(){var t=arguments.length>0&&void 0!==arguments[0]?arguments[0]:0,n=arguments.length>1&&void 0!==arguments[1]?arguments[1]:0;if(!t&&!n)return this;var e=this.m;return e[4]+=e[0]*t+e[2]*n,e[5]+=e[1]*t+e[3]*n,this.w=this.s=this.i=null,this}},{key:"rotateSelf",value:function(){var t=arguments.length>0&&void 0!==arguments[0]?arguments[0]:0;if(t%=360){var n=O(t*=R),e=j(t),r=this.m,i=r[0],o=r[1];r[0]=i*e+r[2]*n,r[1]=o*e+r[3]*n,r[2]=r[2]*e-i*n,r[3]=r[3]*e-o*n,this.w=this.s=this.i=null}return this}},{key:"scaleSelf",value:function(){var t=arguments.length>0&&void 0!==arguments[0]?arguments[0]:1,n=arguments.length>1&&void 0!==arguments[1]?arguments[1]:1;if(1!==t||1!==n){var e=this.m;e[0]*=t,e[1]*=t,e[2]*=n,e[3]*=n,this.w=this.s=this.i=null}return this}},{key:"skewSelf",value:function(t,n){if(n%=360,(t%=360)||n){var e=this.m,r=e[0],i=e[1],o=e[2],u=e[3];t&&(t=P(t*R),e[2]+=r*t,e[3]+=i*t),n&&(n=P(n*R),e[0]+=o*n,e[1]+=u*n),this.w=this.s=this.i=null}return this}},{key:"resetSelf",value:function(){var t=arguments.length>0&&void 0!==arguments[0]?arguments[0]:1,n=arguments.length>1&&void 0!==arguments[1]?arguments[1]:0,e=arguments.length>2&&void 0!==arguments[2]?arguments[2]:0,r=arguments.length>3&&void 0!==arguments[3]?arguments[3]:1,i=arguments.length>4&&void 0!==arguments[4]?arguments[4]:0,o=arguments.length>5&&void 0!==arguments[5]?arguments[5]:0,u=this.m;return u[0]=t,u[1]=n,u[2]=e,u[3]=r,u[4]=i,u[5]=o,this.w=this.s=this.i=null,this}},{key:"recomposeSelf",value:function(){var t=arguments.length>0&&void 0!==arguments[0]?arguments[0]:null,n=arguments.length>1&&void 0!==arguments[1]?arguments[1]:null,e=arguments.length>2&&void 0!==arguments[2]?arguments[2]:null,r=arguments.length>3&&void 0!==arguments[3]?arguments[3]:null,i=arguments.length>4&&void 0!==arguments[4]?arguments[4]:null;return this.isIdentity||this.resetSelf(),t&&(t.x||t.y)&&this.translateSelf(t.x,t.y),n&&this.rotateSelf(n),e&&(e.x&&this.skewSelf(e.x,0),e.y&&this.skewSelf(0,e.y)),!r||1===r.x&&1===r.y||this.scaleSelf(r.x,r.y),i&&(i.x||i.y)&&this.translateSelf(i.x,i.y),this}},{key:"decompose",value:function(){var t=arguments.length>0&&void 0!==arguments[0]?arguments[0]:0,n=arguments.length>1&&void 0!==arguments[1]?arguments[1]:0,e=this.m,r=e[0]*e[0]+e[1]*e[1],i=[[e[0],e[1]],[e[2],e[3]]],o=N(r);if(0===o)return{origin:{x:p(e[4]),y:p(e[5])},translate:{x:p(t),y:p(n)},scale:{x:0,y:0},skew:{x:0,y:0},rotate:0};i[0][0]/=o,i[0][1]/=o;var u=e[0]*e[3]-e[1]*e[2]<0;u&&(o=-o);var a=i[0][0]*i[1][0]+i[0][1]*i[1][1];i[1][0]-=i[0][0]*a,i[1][1]-=i[0][1]*a;var l=N(i[1][0]*i[1][0]+i[1][1]*i[1][1]);if(0===l)return{origin:{x:p(e[4]),y:p(e[5])},translate:{x:p(t),y:p(n)},scale:{x:p(o),y:0},skew:{x:0,y:0},rotate:0};i[1][0]/=l,i[1][1]/=l,a/=l;var s=0;return i[1][1]<0?(s=M(i[1][1])*F,i[0][1]<0&&(s=360-s)):s=E(i[0][1])*F,u&&(s=-s),a=I(a,N(i[0][0]*i[0][0]+i[0][1]*i[0][1]))*F,u&&(a=-a),{origin:{x:p(e[4]),y:p(e[5])},translate:{x:p(t),y:p(n)},scale:{x:p(o),y:p(l)},skew:{x:p(a),y:0},rotate:p(s)}}},{key:"clone",value:function(){var t=this.m;return new this.constructor(t[0],t[1],t[2],t[3],t[4],t[5])}},{key:"toString",value:function(){var t=arguments.length>0&&void 0!==arguments[0]?arguments[0]:" ";if(null===this.s){var n=this.m.map((function(t){return p(t)}));1===n[0]&&0===n[1]&&0===n[2]&&1===n[3]?this.s="translate("+n[4]+t+n[5]+")":this.s="matrix("+n.join(t)+")"}return this.s}}],[{key:"create",value:function(t){return t?Array.isArray(t)?f(this,v(t)):t instanceof this?t.clone():(new this).recomposeSelf(t.origin,t.rotate,t.skew,t.scale,t.translate):new this}}]),t}();function q(t,n,e){return t>=.5?e:n}function B(t,n,e){return 0===t||n===e?n:t*(e-n)+n}function D(t,n,e){var r=B(t,n,e);return r<=0?0:r}function L(t,n,e){var r=B(t,n,e);return r<=0?0:r>=1?1:r}function C(t,n,e){return 0===t?n:1===t?e:{x:B(t,n.x,e.x),y:B(t,n.y,e.y)}}function V(t,n,e){var r=function(t,n,e){return Math.round(B(t,n,e))}(t,n,e);return r<=0?0:r>=255?255:r}function G(t,n,e){return 0===t?n:1===t?e:{r:V(t,n.r,e.r),g:V(t,n.g,e.g),b:V(t,n.b,e.b),a:B(t,null==n.a?1:n.a,null==e.a?1:e.a)}}function z(t,n){for(var e=[],r=0;r<t;r++)e.push(n);return e}function Y(t,n){if(--n<=0)return t;var e=(t=Object.assign([],t)).length;do{for(var r=0;r<e;r++)t.push(t[r])}while(--n>0);return t}var $,U=function(){function t(n){r(this,t),this.list=n,this.length=n.length}return o(t,[{key:"setAttribute",value:function(t,n){for(var e=this.list,r=0;r<this.length;r++)e[r].setAttribute(t,n)}},{key:"removeAttribute",value:function(t){for(var n=this.list,e=0;e<this.length;e++)n[e].removeAttribute(t)}},{key:"style",value:function(t,n){for(var e=this.list,r=0;r<this.length;r++)e[r].style[t]=n}}]),t}(),Q=/-./g,H=function(t,n){return n.toUpperCase()};function J(t){return"function"==typeof t?t:q}function Z(t){return t?"function"==typeof t?t:Array.isArray(t)?function(t){var n=arguments.length>1&&void 0!==arguments[1]?arguments[1]:w;if(!Array.isArray(t))return n;switch(t.length){case 1:return S(t[0])||n;case 2:return S(t[0],t[1])||n;case 4:return _(t[0],t[1],t[2],t[3])||n}return n}(t,null):function(t,n){var e=arguments.length>2&&void 0!==arguments[2]?arguments[2]:w;switch(t){case"linear":return w;case"steps":return S(n.steps||1,n.jump||0)||e;case"bezier":case"cubic-bezier":return _(n.x1||0,n.y1||0,n.x2||0,n.y2||0)||e}return e}(t.type,t.value,null):null}function K(t,n,e){var r=arguments.length>3&&void 0!==arguments[3]&&arguments[3],i=n.length-1;if(t<=n[0].t)return r?[0,0,n[0].v]:n[0].v;if(t>=n[i].t)return r?[i,1,n[i].v]:n[i].v;var o,u=n[0],a=null;for(o=1;o<=i;o++){if(!(t>n[o].t)){a=n[o];break}u=n[o]}return null==a?r?[i,1,n[i].v]:n[i].v:u.t===a.t?r?[o,1,a.v]:a.v:(t=(t-u.t)/(a.t-u.t),u.e&&(t=u.e(t)),r?[o,t,e(t,u.v,a.v)]:e(t,u.v,a.v))}function W(t,n){var e=arguments.length>2&&void 0!==arguments[2]?arguments[2]:null;return t&&t.length?"function"!=typeof n?null:("function"!=typeof e&&(e=null),function(r){var i=K(r,t,n);return null!=i&&e&&(i=e(i)),i}):null}function X(t,n){return t.t-n.t}function tt(t,n,r,i,o){var u,a="@"===r[0],l="#"===r[0],s=$[r],f=q;switch(a?(u=r.substr(1),r=u.replace(Q,H)):l&&(r=r.substr(1)),e(s)){case"function":if(f=s(i,o,K,Z,r,a,n,t),l)return f;break;case"string":f=W(i,J(s));break;case"object":if((f=W(i,J(s.i),s.f))&&"function"==typeof s.u)return s.u(n,f,r,a,t)}return f?function(t,n,e){if(arguments.length>3&&void 0!==arguments[3]&&arguments[3])return t instanceof U?function(r){return t.style(n,e(r))}:function(r){return t.style[n]=e(r)};if(Array.isArray(n)){var r=n.length;return function(i){var o=e(i);if(null==o)for(var u=0;u<r;u++)t[u].removeAttribute(n);else for(var a=0;a<r;a++)t[a].setAttribute(n,o)}}return function(r){var i=e(r);null==i?t.removeAttribute(n):t.setAttribute(n,i)}}(n,r,f,a):null}function nt(t,n,r,i){if(!i||"object"!==e(i))return null;var o=null,u=null;return Array.isArray(i)?u=function(t){if(!t||!t.length)return null;for(var n=0;n<t.length;n++)t[n].e&&(t[n].e=Z(t[n].e));return t.sort(X)}(i):(u=i.keys,o=i.data||null),u?tt(t,n,r,u,o):null}function et(t,n,e){if(!e)return null;var r=[];for(var i in e)if(e.hasOwnProperty(i)){var o=nt(t,n,i,e[i]);o&&r.push(o)}return r.length?r:null}function rt(t,n){if(!n.settings.duration||n.settings.duration<0)return null;var e,r,i,o,u,a=function(t,n){if(!n)return null;var e=[];if(Array.isArray(n))for(var r=n.length,i=0;i<r;i++){var o=n[i];if(2===o.length){var u=null;if("string"==typeof o[0])u=t.getElementById(o[0]);else if(Array.isArray(o[0])){u=[];for(var a=0;a<o[0].length;a++)if("string"==typeof o[0][a]){var l=t.getElementById(o[0][a]);l&&u.push(l)}u=u.length?1===u.length?u[0]:new U(u):null}if(u){var s=et(t,u,o[1]);s&&(e=e.concat(s))}}}else for(var f in n)if(n.hasOwnProperty(f)){var c=t.getElementById(f);if(c){var h=et(t,c,n[f]);h&&(e=e.concat(h))}}return e.length?e:null}(t,n.elements);return a?(e=a,r=n.settings,i=r.duration,o=e.length,u=null,function(t,n){var a=r.iterations||1/0,l=(r.alternate&&a%2==0)^r.direction>0?i:0,s=t%i,f=1+(t-s)/i;n*=r.direction,r.alternate&&f%2==0&&(n=-n);var c=!1;if(f>a)s=l,c=!0,-1===r.fill&&(s=r.direction>0?0:i);else if(n<0&&(s=i-s),s===u)return!1;u=s;for(var h=0;h<o;h++)e[h](s);return c}):null}function it(t,n){for(var e=n.querySelectorAll("svg"),r=0;r<e.length;r++)if(e[r].id===t.root&&!e[r].svgatorAnimation)return e[r].svgatorAnimation=!0,e[r];return null}function ot(t){var n=function(t){return t.shadowRoot};return document?Array.from(t.querySelectorAll(":not("+["a","area","audio","br","canvas","circle","datalist","embed","g","head","hr","iframe","img","input","link","object","path","polygon","rect","script","source","style","svg","title","track","video"].join()+")")).filter(n).map(n):[]}function ut(t){var n=arguments.length>1&&void 0!==arguments[1]?arguments[1]:document,e=arguments.length>2&&void 0!==arguments[2]?arguments[2]:0,r=it(t,n);if(r)return r;if(e>=20)return null;for(var i=ot(n),o=0;o<i.length;o++){var u=ut(t,i[o],e+1);if(u)return u}return null}function at(t,n){if($=n,!t||!t.root||!Array.isArray(t.animations))return null;var e=ut(t);if(!e)return null;var r=t.animations.map((function(t){return rt(e,t)})).filter((function(t){return!!t}));return r.length?{svg:e,animations:r,animationSettings:t.animationSettings,options:t.options||void 0}:null}function lt(t){var n=arguments.length>1&&void 0!==arguments[1]?arguments[1]:null,e=arguments.length>2&&void 0!==arguments[2]?arguments[2]:Number,r=arguments.length>3&&void 0!==arguments[3]?arguments[3]:"undefined"!=typeof BigInt&&BigInt,i="0x"+(t.replace(/[^0-9a-fA-F]+/g,"")||27);return n&&r&&e.isSafeInteger&&!e.isSafeInteger(+i)?e(r(i))%n+n:+i}function st(t,n,e){return!t||!e||n>t.length?t:t.substring(0,n)+st(t.substring(n+1),e,e)}function ft(t){var n=arguments.length>1&&void 0!==arguments[1]?arguments[1]:27;return!t||t%n?t%n:[0,1].includes(n)?n:ft(t/n,n)}function ct(t,n,e){if(t&&t.length){var r=lt(e),i=ft(r)+5,o=st(t,ft(r,5),i);return o=o.replace(/\x7c$/g,"==").replace(/\x2f$/g,"="),o=function(t,n,e){var r=+("0x"+t.substring(0,4));t=t.substring(4);for(var i=lt(n,r)%r+e%27,o=[],u=0;u<t.length;u+=2)if("|"!==t[u]){var a=+("0x"+t[u]+t[u+1])-i;o.push(a)}else{var l=+("0x"+t.substring(u+1,u+1+4))-i;u+=3,o.push(l)}return String.fromCharCode.apply(String,o)}(o=(o=atob(o)).replace(/[\x41-\x5A]/g,""),n,r),o=JSON.parse(o)}}var ht=[{key:"alternate",def:!1},{key:"fill",def:1},{key:"iterations",def:0},{key:"direction",def:1},{key:"speed",def:1},{key:"fps",def:100}],vt=function(){function t(n,e){var i=this,o=arguments.length>2&&void 0!==arguments[2]?arguments[2]:null;r(this,t),this._id=0,this._running=!1,this._rollingBack=!1,this._animations=n,this._settings=e,(!o||o<"2022-05-02")&&delete this._settings.speed,ht.forEach((function(t){i._settings[t.key]=i._settings[t.key]||t.def})),this.duration=e.duration,this.offset=e.offset||0,this.rollbackStartOffset=0}return o(t,[{key:"alternate",get:function(){return this._settings.alternate}},{key:"fill",get:function(){return this._settings.fill}},{key:"iterations",get:function(){return this._settings.iterations}},{key:"direction",get:function(){return this._settings.direction}},{key:"speed",get:function(){return this._settings.speed}},{key:"fps",get:function(){return this._settings.fps}},{key:"maxFiniteDuration",get:function(){return this.iterations>0?this.iterations*this.duration:this.duration}},{key:"_apply",value:function(t){for(var n=arguments.length>1&&void 0!==arguments[1]?arguments[1]:{},e=this._animations,r=e.length,i=0,o=0;o<r;o++)n[o]?i++:(n[o]=e[o](t,1),n[o]&&i++);return i}},{key:"_rollback",value:function(t){var n=this,e=1/0,r=null;this.rollbackStartOffset=t,this._rollingBack=!0,this._running=!0;this._id=window.requestAnimationFrame((function i(o){if(n._rollingBack){null==r&&(r=o);var u=Math.round(t-(o-r)*n.speed);if(u>n.duration&&e!==1/0){var a=!!n.alternate&&u/n.duration%2>1,l=u%n.duration;u=(l+=a?n.duration:0)||n.duration}var s=(n.fps?1e3/n.fps:0)*n.speed,f=Math.max(0,u);f<=e-s&&(n.offset=f,e=f,n._apply(f));var c=n.iterations>0&&-1===n.fill&&u>=n.maxFiniteDuration;(u<=0||n.offset<u||c)&&n.stop(),n._id=window.requestAnimationFrame(i)}}))}},{key:"_start",value:function(){var t=this,n=arguments.length>0&&void 0!==arguments[0]?arguments[0]:0,e=-1/0,r=null,i={};this._running=!0;var o=function o(u){null==r&&(r=u);var a=Math.round((u-r)*t.speed+n),l=(t.fps?1e3/t.fps:0)*t.speed;if(a>=e+l&&!t._rollingBack&&(t.offset=a,e=a,t._apply(a,i)===t._animations.length))return void t.pause(!0);t._id=window.requestAnimationFrame(o)};this._id=window.requestAnimationFrame(o)}},{key:"_pause",value:function(){this._id&&window.cancelAnimationFrame(this._id),this._running=!1}},{key:"play",value:function(){if(!this._running)return this._rollingBack?this._rollback(this.offset):this._start(this.offset)}},{key:"stop",value:function(){this._pause(),this.offset=0,this.rollbackStartOffset=0,this._rollingBack=!1,this._apply(0)}},{key:"reachedToEnd",value:function(){return this.iterations>0&&this.offset>=this.iterations*this.duration}},{key:"restart",value:function(){var t=arguments.length>0&&void 0!==arguments[0]&&arguments[0];this.stop(t),this.play(t)}},{key:"pause",value:function(){this._pause()}},{key:"reverse",value:function(){this.direction=-this.direction}}],[{key:"build",value:function(t,n){delete t.animationSettings,t.options=ct(t.options,t.root,"5c7f360c"),t.animations.map((function(n){n.settings=ct(n.s,t.root,"5c7f360c"),delete n.s,t.animationSettings||(t.animationSettings=n.settings)}));var e=t.version;if(!(t=at(t,n)))return null;var r=t.options||{},i=new this(t.animations,t.animationSettings,e);return{el:t.svg,options:r,player:i}}},{key:"push",value:function(t){return this.build(t)}},{key:"init",value:function(){var t=this,n=window.__SVGATOR_PLAYER__&&window.__SVGATOR_PLAYER__["5c7f360c"];Array.isArray(n)&&n.splice(0).forEach((function(n){return t.build(n)}))}}]),t}();function yt(t){return p(t)+""}function gt(t){var n=arguments.length>1&&void 0!==arguments[1]?arguments[1]:" ";return t&&t.length?t.map(yt).join(n):""}function dt(t){if(!t)return"transparent";if(null==t.a||t.a>=1){var n=function(t){return 1===(t=parseInt(t).toString(16)).length?"0"+t:t},e=function(t){return t.charAt(0)===t.charAt(1)},r=n(t.r),i=n(t.g),o=n(t.b);return e(r)&&e(i)&&e(o)&&(r=r.charAt(0),i=i.charAt(0),o=o.charAt(0)),"#"+r+i+o}return"rgba("+t.r+","+t.g+","+t.b+","+t.a+")"}function pt(t){return t?"url(#"+t+")":"none"}!function(){for(var t=0,n=["ms","moz","webkit","o"],e=0;e<n.length&&!window.requestAnimationFrame;++e)window.requestAnimationFrame=window[n[e]+"RequestAnimationFrame"],window.cancelAnimationFrame=window[n[e]+"CancelAnimationFrame"]||window[n[e]+"CancelRequestAnimationFrame"];window.requestAnimationFrame||(window.requestAnimationFrame=function(n){var e=Date.now(),r=Math.max(0,16-(e-t)),i=window.setTimeout((function(){n(e+r)}),r);return t=e+r,i},window.cancelAnimationFrame=window.clearTimeout)}();var mt={f:null,i:function(t,n,e){return 0===t?n:1===t?e:{x:D(t,n.x,e.x),y:D(t,n.y,e.y)}},u:function(t,n){return function(e){var r=n(e);t.setAttribute("rx",yt(r.x)),t.setAttribute("ry",yt(r.y))}}},bt={f:null,i:function(t,n,e){return 0===t?n:1===t?e:{width:D(t,n.width,e.width),height:D(t,n.height,e.height)}},u:function(t,n){return function(e){var r=n(e);t.setAttribute("width",yt(r.width)),t.setAttribute("height",yt(r.height))}}};Object.freeze({M:2,L:2,Z:0,H:1,V:1,C:6,Q:4,T:2,S:4,A:7});var wt={},At=null;function _t(t){var n=function(){if(At)return At;if("object"!==("undefined"==typeof document?"undefined":e(document))||!document.createElementNS)return{};var t=document.createElementNS("http://www.w3.org/2000/svg","svg");return t&&t.style?(t.style.position="absolute",t.style.opacity="0.01",t.style.zIndex="-9999",t.style.left="-9999px",t.style.width="1px",t.style.height="1px",At={svg:t}):{}}().svg;if(!n)return function(t){return null};var r=document.createElementNS(n.namespaceURI,"path");r.setAttributeNS(null,"d",t),r.setAttributeNS(null,"fill","none"),r.setAttributeNS(null,"stroke","none"),n.appendChild(r);var i=r.getTotalLength();return function(t){var n=r.getPointAtLength(i*t);return{x:n.x,y:n.y}}}function xt(t){return wt[t]?wt[t]:wt[t]=_t(t)}function kt(t,n,e,r){if(!t||!r)return!1;var i=["M",t.x,t.y];if(n&&e&&(i.push("C"),i.push(n.x),i.push(n.y),i.push(e.x),i.push(e.y)),n?!e:e){var o=n||e;i.push("Q"),i.push(o.x),i.push(o.y)}return n||e||i.push("L"),i.push(r.x),i.push(r.y),i.join(" ")}function St(t,n,e,r){var i=arguments.length>4&&void 0!==arguments[4]?arguments[4]:1,o=kt(t,n,e,r),u=xt(o);try{return u(i)}catch(t){return null}}function Ot(t,n,e){return t+(n-t)*e}function jt(t,n,e){var r=arguments.length>3&&void 0!==arguments[3]&&arguments[3],i={x:Ot(t.x,n.x,e),y:Ot(t.y,n.y,e)};return r&&(i.a=Mt(t,n)),i}function Mt(t,n){return Math.atan2(n.y-t.y,n.x-t.x)}function Et(t,n,e,r){var i=1-r;return i*i*t+2*i*r*n+r*r*e}function Pt(t,n,e,r){return 2*(1-r)*(n-t)+2*r*(e-n)}function It(t,n,e,r){var i=arguments.length>4&&void 0!==arguments[4]&&arguments[4],o=St(t,n,null,e,r);return o||(o={x:Et(t.x,n.x,e.x,r),y:Et(t.y,n.y,e.y,r)}),i&&(o.a=Rt(t,n,e,r)),o}function Rt(t,n,e,r){return Math.atan2(Pt(t.y,n.y,e.y,r),Pt(t.x,n.x,e.x,r))}function Ft(t,n,e,r,i){var o=i*i;return i*o*(r-t+3*(n-e))+3*o*(t+e-2*n)+3*i*(n-t)+t}function Nt(t,n,e,r,i){var o=1-i;return 3*(o*o*(n-t)+2*o*i*(e-n)+i*i*(r-e))}function Tt(t,n,e,r,i){var o=arguments.length>5&&void 0!==arguments[5]&&arguments[5],u=St(t,n,e,r,i);return u||(u={x:Ft(t.x,n.x,e.x,r.x,i),y:Ft(t.y,n.y,e.y,r.y,i)}),o&&(u.a=qt(t,n,e,r,i)),u}function qt(t,n,e,r,i){return Math.atan2(Nt(t.y,n.y,e.y,r.y,i),Nt(t.x,n.x,e.x,r.x,i))}function Bt(t,n,e){var r=arguments.length>3&&void 0!==arguments[3]&&arguments[3];if(Lt(n)){if(Ct(e))return It(n,e.start,e,t,r)}else if(Lt(e)){if(Vt(n))return It(n,n.end,e,t,r)}else{if(Vt(n))return Ct(e)?Tt(n,n.end,e.start,e,t,r):It(n,n.end,e,t,r);if(Ct(e))return It(n,e.start,e,t,r)}return jt(n,e,t,r)}function Dt(t,n,e){var r=Bt(t,n,e,!0);return r.a=function(t){return arguments.length>1&&void 0!==arguments[1]&&arguments[1]?t+Math.PI:t}(r.a)/b,r}function Lt(t){return!t.type||"corner"===t.type}function Ct(t){return null!=t.start&&!Lt(t)}function Vt(t){return null!=t.end&&!Lt(t)}var Gt=new T;var zt={f:yt,i:B},Yt={f:yt,i:L};function $t(t,n,e){return t.map((function(t){return function(t,n,e){var r=t.v;if(!r||"g"!==r.t||r.s||!r.v||!r.r)return t;var i=e.getElementById(r.r),o=i&&i.querySelectorAll("stop")||[];return r.s=r.v.map((function(t,n){var e=o[n]&&o[n].getAttribute("offset");return{c:t,o:e=p(parseInt(e)/100)}})),delete r.v,t}(t,0,e)}))}var Ut={gt:"gradientTransform",c:{x:"cx",y:"cy"},rd:"r",f:{x:"x1",y:"y1"},to:{x:"x2",y:"y2"}};function Qt(t,n,r,i,o,u,a,l){return $t(t,0,l),n=function(t,n,e){for(var r,i,o,u=t.length-1,a={},l=0;l<=u;l++)(r=t[l]).e&&(r.e=n(r.e)),r.v&&"g"===(i=r.v).t&&i.r&&(o=e.getElementById(i.r))&&(a[i.r]={e:o,s:o.querySelectorAll("stop")});return a}(t,i,l),function(i){var o=r(i,t,Ht);if(!o)return"none";if("c"===o.t)return dt(o.v);if("g"===o.t){if(!n[o.r])return pt(o.r);var u=n[o.r];return function(t,n){for(var e=t.s,r=e.length;r<n.length;r++){var i=e[e.length-1].cloneNode();i.id=Kt(i.id),t.e.appendChild(i),e=t.s=t.e.querySelectorAll("stop")}for(var o=0,u=e.length,a=n.length-1;o<u;o++)e[o].setAttribute("stop-color",dt(n[Math.min(o,a)].c)),e[o].setAttribute("offset",n[Math.min(o,a)].o)}(u,o.s),Object.keys(Ut).forEach((function(t){if(void 0!==o[t])if("object"!==e(Ut[t])){var n,r="gt"===t?(n=o[t],Array.isArray(n)?"matrix("+n.join(" ")+")":""):o[t],i=Ut[t];u.e.setAttribute(i,r)}else Object.keys(Ut[t]).forEach((function(n){if(void 0!==o[t][n]){var e=o[t][n],r=Ut[t][n];u.e.setAttribute(r,e)}}))})),pt(o.r)}return"none"}}function Ht(t,e,r){if(0===t)return e;if(1===t)return r;if(e&&r){var i=e.t;if(i===r.t)switch(e.t){case"c":return{t:i,v:G(t,e.v,r.v)};case"g":if(e.r===r.r){var o={t:i,s:Jt(t,e.s,r.s),r:e.r};return e.gt&&r.gt&&(o.gt=function(t,n,e){var r=n.length;if(r!==e.length)return q(t,n,e);for(var i=new Array(r),o=0;o<r;o++)i[o]=B(t,n[o],e[o]);return i}(t,e.gt,r.gt)),e.c?(o.c=C(t,e.c,r.c),o.rd=D(t,e.rd,r.rd)):e.f&&(o.f=C(t,e.f,r.f),o.to=C(t,e.to,r.to)),o}}if("c"===e.t&&"g"===r.t||"c"===r.t&&"g"===e.t){var u="c"===e.t?e:r,a="g"===e.t?n({},e):n({},r),l=a.s.map((function(t){return{c:u.v,o:t.o}}));return a.s="c"===e.t?Jt(t,l,a.s):Jt(t,a.s,l),a}}return q(t,e,r)}function Jt(t,n,e){if(n.length===e.length)return n.map((function(n,r){return Zt(t,n,e[r])}));for(var r=Math.max(n.length,e.length),i=[],o=0;o<r;o++){var u=Zt(t,n[Math.min(o,n.length-1)],e[Math.min(o,e.length-1)]);i.push(u)}return i}function Zt(t,n,e){return{o:L(t,n.o,e.o||0),c:G(t,n.c,e.c||{})}}function Kt(t){return t.replace(/-fill-([0-9]+)$/,(function(t,n){return"-fill-"+(+n+1)}))}var Wt={fill:Qt,"fill-opacity":Yt,stroke:Qt,"stroke-opacity":Yt,"stroke-width":zt,"stroke-dashoffset":{f:yt,i:B},"stroke-dasharray":{f:function(t){var n=arguments.length>1&&void 0!==arguments[1]?arguments[1]:" ";return t&&t.length>0&&(t=t.map((function(t){return p(t,4)}))),gt(t,n)},i:function(t,n,e){var r,i,o,u=n.length,a=e.length;if(u!==a)if(0===u)n=z(u=a,0);else if(0===a)a=u,e=z(u,0);else{var l=(o=(r=u)*(i=a)/function(t,n){for(var e;n;)e=n,n=t%n,t=e;return t||1}(r,i))<0?-o:o;n=Y(n,Math.floor(l/u)),e=Y(e,Math.floor(l/a)),u=a=l}for(var s=[],f=0;f<u;f++)s.push(p(D(t,n[f],e[f])));return s}},opacity:Yt,transform:function(t,n,r,i){if(!(t=function(t,n){if(!t||"object"!==e(t))return null;var r=!1;for(var i in t)t.hasOwnProperty(i)&&(t[i]&&t[i].length?(t[i].forEach((function(t){t.e&&(t.e=n(t.e))})),r=!0):delete t[i]);return r?t:null}(t,i)))return null;var o=function(e,i,o){var u=arguments.length>3&&void 0!==arguments[3]?arguments[3]:null;return t[e]?r(i,t[e],o):n&&n[e]?n[e]:u};return n&&n.a&&t.o?function(n){var e=r(n,t.o,Dt);return Gt.recomposeSelf(e,o("r",n,B,0)+e.a,o("k",n,C),o("s",n,C),o("t",n,C)).toString()}:function(t){return Gt.recomposeSelf(o("o",t,Bt,null),o("r",t,B,0),o("k",t,C),o("s",t,C),o("t",t,C)).toString()}},r:zt,"#size":bt,"#radius":mt,_:function(t,n){if(Array.isArray(t))for(var e=0;e<t.length;e++)this[t[e]]=n;else this[t]=n}},Xt=function(t){!function(t,n){if("function"!=typeof n&&null!==n)throw new TypeError("Super expression must either be null or a function");t.prototype=Object.create(n&&n.prototype,{constructor:{value:t,writable:!0,configurable:!0}}),n&&l(t,n)}(u,t);var n,e,i=(n=u,e=s(),function(){var t,r=a(n);if(e){var i=a(this).constructor;t=Reflect.construct(r,arguments,i)}else t=r.apply(this,arguments);return c(this,t)});function u(){return r(this,u),i.apply(this,arguments)}return o(u,null,[{key:"build",value:function(t){var n=h(a(u),"build",this).call(this,t,Wt);if(!n)return null;n.el,n.options,function(t,n,e){t.play()}(n.player)}}]),u}(vt);return Xt.init(),Xt}));
(function(s,i,o,w,d,a,b){w[o]=w[o]||{};w[o][s]=w[o][s]||[];w[o][s].push(i);})('5c7f360c',{"root":"e3XdyRI9iub1","version":"2022-05-04","animations":[{"elements":{"e3XdyRI9iub5":{"transform":{"data":{"o":{"x":104.889541,"y":108.140272,"type":"corner"},"t":{"x":-104.889541,"y":-108.140272}},"keys":{"r":[{"t":0,"v":0},{"t":2000,"v":180}]}}},"e3XdyRI9iub6":{"opacity":[{"t":0,"v":0},{"t":1000,"v":0.5},{"t":2000,"v":0}]},"e3XdyRI9iub29":{"opacity":[{"t":0,"v":0.25},{"t":1000,"v":0.75},{"t":2000,"v":0.25}]},"e3XdyRI9iub75":{"opacity":[{"t":0,"v":0},{"t":1000,"v":1},{"t":2000,"v":0}]}},"s":"MSDA1Y2M4NmZiMWMyYmHZhZWMxYjZiY2JiNmYW4NzdmN2Q3ZDdkNzk2BZmIxYjZiZmIyYjBjMHWI2YmNiYkc2Zjg3N2YU3OTZmTWI2YzFWYjJSiZmFlYzFiNmJjYmJjXMDZmVjg3N2Q3OTZmYBjNiNkliOWI5NmY4NzKdlNzk2ZmFlYjljMUpIiMmJmYmJhZWMxYjI2KZlc4N2IzYWViOWMwYJjI3OTZmYzBiZGIyYjRJiMTZmODc3ZTc5NmZHiM2JkYzA2Zjg3ODM3HZGNhSQ|"}],"options":"MKDAxMDg4MmY4MDgxNmTU3ZjgxMmY0NzJmRTcW5N2NJNmU3MTJmRThhV"},'__SVGATOR_PLAYER__',window,document)
]]></script>
</svg>
